<svg data-name="Layer 1" xmlns="http://www.w3.org/2000/svg" viewBox="0 0 349 114.4"><path fill="#fdb913" d="M0 0h349v114.4H0z" data-name="Layer 3"/><g data-name="New logo"><path d="M75.9 38.6a11.61 11.61 0 0 1 3.5 13.8c-1.9-3.8-9.6-7-14.7-8.1 3.8-1.4 8.2-3.1 11.2-5.7zM44.2 74.3a11.61 11.61 0 0 1-3.5-13.8c1.9 3.8 9.6 7 14.7 8.1-3.8 1.4-8.2 3-11.2 5.7z"/><path d="M43 76.9l.1-.1.1-.1c-.1 0-.2-.1-.3-.2-3.4-3.1-5.6-6.9-5.3-11.5C38.9 42.8 69.3 44.8 76 35.3a66.11 66.11 0 0 0-14.9-5.9c-3.6 2-7.3 3.1-11 4.7-22.2 9.4-28.3 28.5-7.2 42.7-.1 0 0 .1.1.1zM77.3 36.1l-.2-.2-.1.1-.1.1a.1.1 0 0 1 .1.1c.1 0 .2.1.3.2 3.2 3 5.6 6.9 5.3 11.5C81 70.2 50.9 68 44.2 77.6a66.11 66.11 0 0 0 14.9 5.9c3.6-2 7.3-3.1 11-4.7 22.2-9.4 28.3-28.5 7.2-42.7zM133.9 49.1c-.2-3.3-2.7-8.8-11.5-8.8h-15.3v.5c.4 7.6.5 26.1.1 31.6v.5h8.5v-.5c-.1-2.9-.2-6.9-.3-11h6.4a12 12 0 0 0 9.6-4c2.1-2.1 2.6-5.5 2.5-8.3zm-14.4 6.7h-4.2v-9.7a40 40 0 0 1 4.8-.1c3.7.2 5.4 2 5.4 4.5 0 1.8-.6 5.1-6 5.3zM154.5 48l-.4-.1a5.6 5.6 0 0 0-1.8-.1 10.35 10.35 0 0 0-8.4 3.8l.1-2.8v-.5h-7.7v.5c.5 9.6.3 15.9.2 21.9v2.2h8v-.5l-.1-2.9a63.44 63.44 0 0 1 .1-10.3c.4-2.7 2-4.9 5.7-4.9a11.4 11.4 0 0 1 2.6.2l.7.2zM183.8 59.8c-.4-7.7-5.7-12-14.8-12-4.8 0-8.9 1.5-11.4 4.2-2.3 2.4-3.2 5.5-3.2 9.2 0 5.7 4.3 12.3 14.9 12.3 4.9 0 8.7-1.4 11.2-4a13 13 0 0 0 3.3-9.4m-21.2 1.3a8.53 8.53 0 0 1 1.8-6.2 6.28 6.28 0 0 1 4.8-1.7c1.9 0 6.2.7 6.4 6.7a8.16 8.16 0 0 1-1.8 6 6 6 0 0 1-4.6 1.7c-4.7 0-6.5-3.5-6.6-6.5M228.1 54.7c-.2-4.3-3.6-6.9-9-6.9-3.8 0-6.7 1.3-8.4 3.8-1.4-2.5-4.2-3.8-7.9-3.8a10.16 10.16 0 0 0-7.8 3.8l.1-2.7v-.5h-7.8v.5c.3 8.9.1 20.9 0 23.6v.5h8.3v-.5c-.1-2.7-.4-10.2.1-13.4.3-2.3 1.4-4.9 4.8-4.9 2.2 0 3.3 1.2 3.4 3.7.2 3.5.1 7.1 0 10.5 0 1.4-.1 2.8-.1 4.2v.5h8.2v-.9c-.1-2.6-.3-10.6.1-13.3.2-1.7 1.2-4.7 4.8-4.7 2.3 0 3.4 1.1 3.5 3.5.1 1.6 0 11.3-.2 14.8v.5h8.2v-.5c-.2-5.7-.1-11.3 0-14.7a16.17 16.17 0 0 1-.3-3.1M245.7 47.8c-5.7 0-8.8 1.4-11.2 3.9a13.55 13.55 0 0 0-3.3 9.8 11.83 11.83 0 0 0 2.7 7.3c2.6 3.1 7.2 4.7 13.1 4.7a43.12 43.12 0 0 0 8.6-1.1l.3-.1V72l.9-4.7.1-.8-.7.2a33.77 33.77 0 0 1-8.7 1.3c-4.6 0-7.9-1.5-8.1-5.4v-.2h19.1V59c0-6.4-4.2-11.3-13.3-11.3m5.5 10.1h-11.2a5.38 5.38 0 0 1 5.7-5.1c3.2 0 5.5 1.6 5.5 5.1M281.5 70.2s.6 3.8-1.4 5.8c-1.7 1.6-4.8 1.7-6.7 1.7a33.83 33.83 0 0 1-7.8-1.1l-.7-.2-.9 5.9.3.1a67.36 67.36 0 0 0 10.8 1c5.1 0 9.6-1.5 11.7-3.6 2.1-2.3 2.8-5.7 2.7-8.8-.2-8.3-.3-13.7.1-21.5v-.4l-.4-.1a68.71 68.71 0 0 0-11.3-1.1c-6.2 0-10.2 1.1-13.2 4.2a12.68 12.68 0 0 0-3.4 9.6c.3 6.7 4.5 11.7 11.7 11.7 5.5-.2 7.3-2 8.5-3.2zm-6.2-2.9c-3.8 0-5.9-1.8-6.1-5.5-.1-1.4 0-4.2 1.9-6.1 1.5-1.6 3.6-2.4 6.7-2.4a25.06 25.06 0 0 1 3.7.3v1.7c0 2.2 0 4.6-.2 6.7-.4 2.7-2.1 5.3-6 5.3M318.6 72.4c-.2-4.2-.1-8.3 0-11.8.1-2.4 0-3.3 0-4.7 0-4.5-2.9-8.2-11.6-8.2a51.12 51.12 0 0 0-11 1.2l-.3.1v.3l-.6 4.5-.1.8.8-.3a29.66 29.66 0 0 1 9.9-1.9c3.5 0 4.7.9 4.7 2.3 0 2.1-3.4 2.2-7.9 3.1-5.1 1.1-10.3 2.7-10 8.6.3 6.5 7 7 9.9 7s6.8-.8 8.3-3a11.48 11.48 0 0 1-.1 1.9v.5h8zm-7.9-7.7c-.9 3.6-5.2 3.8-6.4 3.8-1.8 0-3.5-.5-3.7-2.4s1.4-3.2 4.9-3.8a23 23 0 0 0 5.2-1.4z"/></g></svg>