<svg xmlns="http://www.w3.org/2000/svg" viewBox="483 64 526 151">
  <path d="M631 157c-8 33-36 58-73 58-42 0-75-34-75-76s32-75 75-75c37 0 65 24 73 57h-40c-6-11-18-19-33-19-22 0-37 16-37 37s15 38 37 38c15 0 27-8 33-20h40zm51-56v61c0 12 6 17 15 17 11 0 16-9 16-19v-59h36v111h-35v-9c-5 5-13 11-29 11-26 0-39-16-39-41v-72h36zm213 111h-45l-42-47v47h-37V67h60c35 0 55 17 55 48 0 24-11 41-37 47l46 50zm-87-73h16c16 0 24-6 24-20 0-16-10-19-24-20h-16v40zm119 27c3 11 12 17 23 17 9 0 15-4 18-9h38c-7 24-29 41-55 41-33 0-58-26-58-58s25-58 58-58a57 57 0 0 1 57 67h-81zm47-20c-4-9-13-16-23-16-11 0-20 7-24 16h47z" pathLength="400"/>
</svg>
