<svg xmlns="http://www.w3.org/2000/svg" viewBox="0 0 1018 278">
	<g>
		<path d="M135.85,228.75c-49.32,0-89.44-40.12-89.44-89.44s40.12-89.44,89.44-89.44c35.95,0,66.99,21.33,81.19,51.99h40.31
			c-15.99-51.92-64.33-89.66-121.5-89.66C65.65,12.2,8.74,69.11,8.74,139.31s56.91,127.11,127.11,127.11
			c57.17,0,105.51-37.74,121.5-89.66h-40.31C202.84,207.42,171.8,228.75,135.85,228.75z"/>
		<path d="M340.2,78.84c-28.61,0-52.57,19.88-58.85,46.57h-19.16H224.2h-29.5c-6.28-26.69-30.24-46.57-58.85-46.57
			c-33.4,0-60.47,27.08-60.47,60.47s27.08,60.47,60.47,60.47c28.61,0,52.57-19.88,58.85-46.57h29.5h37.99h19.16
			c6.28,26.69,30.24,46.57,58.85,46.57c33.4,0,60.47-27.08,60.47-60.47S373.6,78.84,340.2,78.84z"/>
	</g>
	<g>
		<path d="M631.35,157.42c-8.02,32.92-36.42,57.41-73.05,57.41c-42.8,0-75.32-33.75-75.32-75.52s32.51-75.52,75.32-75.52
			c36.63,0,65.03,24.49,73.05,57.41h-40.33c-5.76-11.52-17.7-19.55-32.72-19.55c-22.02,0-37.45,16.67-37.45,37.66
			c0,20.99,15.43,37.66,37.45,37.66c15.02,0,26.96-8.03,32.72-19.55H631.35z"/>
		<path d="M682.38,100.83v61.53c0,11.32,5.35,16.67,14.2,16.67c11.11,0,16.26-8.64,16.26-19.34v-58.85h36.63v111.33h-35.19
			l-0.21-9.67c-4.73,5.14-12.96,11.52-29.22,11.52c-25.93,0-38.89-16.05-38.89-41.36v-71.82H682.38z"/>
		<path d="M894.74,212.16h-44.86l-41.57-47.12v47.12h-36.83V66.88h59.68c35.19,0,54.94,16.67,54.74,48.36
			c0,24.08-11.11,40.33-37.25,47.12L894.74,212.16z M808.32,139.31h15.43c16.26,0,24.69-6.17,24.69-20.37
			c0-16.26-10.7-19.34-24.08-19.55l-16.05-0.21V139.31z"/>
		<path d="M926.63,166.06c3.09,10.9,11.94,16.46,23.46,16.46c8.44,0,14.61-3.5,18.11-8.23h37.86c-7,23.46-28.6,40.33-55.15,40.33
			c-33.13,0-57.82-25.72-57.82-57.82s24.69-57.82,57.82-57.82c32.92,0,57.82,25.72,57.82,57.21c0,4.12-0.41,7.61-1.03,9.88H926.63z
			M973.76,146.31c-3.5-9.67-12.35-15.84-23.25-15.84c-10.91,0-19.75,6.17-23.25,15.84H973.76z"/>
	</g>
</svg>
