<svg xmlns="http://www.w3.org/2000/svg" xmlns:xlink="http://www.w3.org/1999/xlink" viewBox="-1 -1 160.3 163.83" width="200" height="204.52"><defs><path d="M116.91 71.18C112.97 54.4 97.9 41.9 79.92 41.9c-21 0-38.02 17.02-38.02 38.01 0 21 17.02 38.02 38.02 38.02 17.98 0 33.05-12.5 36.99-29.28h39.39V71.18h-39.39Z" id="a"/><path d="M79.92 23.69c22.6 0 42.11 13.41 51.04 32.68h25.34C146.25 23.73 115.86 0 79.92 0 35.78 0 0 35.78 0 79.91c0 44.14 35.78 79.92 79.92 79.92 35.94 0 66.33-23.73 76.38-56.37h-25.34c-8.93 19.27-28.44 32.68-51.04 32.68-31.01 0-56.23-25.22-56.23-56.23 0-31 25.22-56.22 56.23-56.22Z" id="b"/></defs><use xlink:href="#a" fill="#f46400"/><use xlink:href="#a" fill-opacity="0" stroke="#000" stroke-opacity="0"/><use xlink:href="#b" fill="#f46400"/><use xlink:href="#b" fill-opacity="0" stroke="#000" stroke-opacity="0"/></svg>
