<?xml version="1.0" encoding="UTF-8" standalone="no"?>
<!DOCTYPE svg PUBLIC "-//W3C//DTD SVG 1.1//EN" "http://www.w3.org/Graphics/SVG/1.1/DTD/svg11.dtd">
<svg version="1.1" xmlns="http://www.w3.org/2000/svg" xmlns:xlink="http://www.w3.org/1999/xlink" preserveAspectRatio="xMidYMid meet" viewBox="-0.9999999999999947 -1 160.3 163.83000000000007" width="200" height="204.52"><defs><path d="M116.91 71.18C112.97 54.4 97.9 41.9 79.92 41.9C58.92 41.9 41.9 58.92 41.9 79.91C41.9 100.91 58.92 117.93 79.92 117.93C97.9 117.93 112.97 105.43 116.91 88.65C117.48 88.65 130.6 88.65 156.3 88.65C156.3 87.49 156.3 81.66 156.3 71.18C130.87 71.18 117.74 71.18 116.91 71.18Z" id="h1BC2krFzl"></path><path d="M79.92 23.69C102.52 23.69 122.03 37.1 130.96 56.37C133.49 56.37 153.77 56.37 156.3 56.37C146.25 23.73 115.86 0 79.92 0C35.78 0 0 35.78 0 79.91C0 124.05 35.78 159.83 79.92 159.83C115.86 159.83 146.25 136.1 156.3 103.46C153.77 103.46 133.49 103.46 130.96 103.46C122.03 122.73 102.52 136.14 79.92 136.14C48.91 136.14 23.69 110.92 23.69 79.91C23.69 48.91 48.91 23.69 79.92 23.69Z" id="e5uhgOlu1q"></path></defs><g><g><use xlink:href="#h1BC2krFzl" opacity="1" fill="#e36d1d" fill-opacity="1"></use><g><use xlink:href="#h1BC2krFzl" opacity="1" fill-opacity="0" stroke="#000000" stroke-width="1" stroke-opacity="0"></use></g></g><g><use xlink:href="#e5uhgOlu1q" opacity="1" fill="#e36d1d" fill-opacity="1"></use><g><use xlink:href="#e5uhgOlu1q" opacity="1" fill-opacity="0" stroke="#000000" stroke-width="1" stroke-opacity="0"></use></g></g></g></svg>