<svg xmlns="http://www.w3.org/2000/svg">
  <symbol id="epfl" viewBox="0 0 182.4 53"><path d="M0 21.6h11.43V9.8h26.91V0H0ZM0 53h38.34v-9.8H11.43V31.4H0Z" fill="red"/><path d="M11.43 21.6h24.61v9.8H11.43ZM86 4.87a16.12 16.12 0 0 0-5.68-3.53A23.76 23.76 0 0 0 71.82 0H48.14v53h11.43V31.4h12.25a23.76 23.76 0 0 0 8.46-1.34A16.12 16.12 0 0 0 86 26.53a13.43 13.43 0 0 0 3.19-5 17.38 17.38 0 0 0 0-11.62A13.52 13.52 0 0 0 86 4.87Zm-8 13.86a5.7 5.7 0 0 1-2.26 1.8 11.33 11.33 0 0 1-3.27.85 32 32 0 0 1-3.86.22h-9.04V9.8h9.05a32 32 0 0 1 3.86.22 11 11 0 0 1 3.27.86A5.59 5.59 0 0 1 78 12.67a5 5 0 0 1 .86 3 5 5 0 0 1-.86 3.06Zm77.47 24.47V0h-11.43v53h38.34v-9.8zM97.42 21.6h11.43V9.8h26.91V0H97.42Zm0 9.8h11.43V53H97.42Zm11.43-9.8h24.61v9.8h-24.61z" fill="red"/></symbol>
  <symbol id="logo" viewBox="0 0 1018 278"><path d="M136 229a90 90 0 1181-127h40a127 127 0 100 75h-40a90 90 0 01-81 52z" pathLength="100"/><path d="M340 79c-28 0-52 20-59 46h-86a60 60 0 100 28h86a60 60 0 1059-74z" pathLength="100"/><path d="M631 157c-8 33-36 58-73 58-42 0-75-34-75-76s32-75 75-75c37 0 65 24 73 57h-40c-6-11-18-19-33-19-22 0-37 16-37 37s15 38 37 38c15 0 27-8 33-20h40zM682 101v61c0 12 6 17 15 17 11 0 16-9 16-19v-59h36v111h-35v-9c-5 5-13 11-29 11-26 0-39-16-39-41v-72h36zM895 212h-45l-42-47v47h-37V67h60c35 0 55 17 55 48 0 24-11 41-37 47l46 50zm-87-73h16c16 0 24-6 24-20 0-16-10-19-24-20h-16v40zM927 166c3 11 12 17 23 17 9 0 15-4 18-9h38c-7 24-29 41-55 41-33 0-58-26-58-58s25-58 58-58a57 57 0 0157 67h-81zm47-20c-4-9-13-16-23-16-11 0-20 7-24 16h47z" pathLength="400"/></symbol>

  <symbol id="attributions" viewBox="0 0 512 512"><path d="M315.729 66.794c-1.379 0-2.757-.394-3.938-1.28L260 29.575l-51.791 36.037a6.897 6.897 0 0 1-9.55-1.674 6.896 6.896 0 0 1 1.674-9.551l55.729-38.892a6.805 6.805 0 0 1 7.877 0l55.729 38.793c3.15 2.167 3.938 6.499 1.674 9.551-1.28 1.97-3.446 2.955-5.613 2.955zm-127.901 73.551h-10.831v28.554h-8.271v-28.554h-10.929v-7.286h30.129l-.098 7.286zm34.954-7.188v35.84h-8.271v-14.671h-14.277v14.671h-8.172v-35.84h8.271v13.883h14.277v-13.883h8.172zm16.541 0h7.483l13.095 35.84h-8.468l-2.855-8.074h-11.126l-2.757 8.074h-8.468l13.096-35.84zm7.975 22.055-4.135-12.702-4.234 12.702h8.369zm24.419-6.695v20.48h-8.271v-35.84h6.499l16.639 21.071v-21.071h8.271v35.84h-6.695l-16.443-20.48zm30.031 20.48v-35.84h8.271v15.458l13.096-15.458h9.354l-13.391 15.951 14.375 19.889H324l-10.24-14.474-3.741 3.84v10.535l-8.271.099zm55.827-25.305c-.099-.099-.492-.394-1.083-.788s-1.378-.788-2.265-1.182a21.964 21.964 0 0 0-3.052-1.083c-1.084-.295-2.167-.493-3.151-.493-3.052 0-4.431.985-4.431 3.053 0 .591.197 1.083.492 1.575.296.394.788.788 1.478 1.083.591.295 1.378.591 2.362.886a72.88 72.88 0 0 0 3.25.886c1.771.492 3.249.984 4.627 1.575 1.379.591 2.561 1.28 3.446 2.068.984.886 1.772 1.871 2.265 3.052s.788 2.658.788 4.234c0 2.068-.395 3.643-1.182 5.12-.788 1.378-1.772 2.56-3.053 3.348-1.279.886-2.757 1.477-4.233 1.871-1.478.394-3.249.591-5.021.591-1.379 0-2.658-.099-4.037-.295s-2.757-.492-4.037-.886a27.3 27.3 0 0 1-3.741-1.378c-1.28-.591-2.363-1.182-3.348-1.871l3.544-7.188c.099.197.591.493 1.379.985s1.674.984 2.757 1.477c1.083.492 2.363.886 3.644 1.28 1.378.394 2.757.591 4.036.591 2.954 0 4.333-.886 4.333-2.757 0-.689-.197-1.28-.689-1.674-.492-.492-1.083-.886-1.871-1.182-.787-.394-1.674-.689-2.757-.984-1.083-.296-2.265-.689-3.446-.985-1.674-.492-3.052-1.083-4.233-1.674s-2.265-1.28-3.053-2.068a7.397 7.397 0 0 1-1.772-2.757c-.394-.984-.59-2.265-.59-3.446 0-1.871.394-3.544 1.083-5.021.688-1.477 1.674-2.757 2.953-3.643 1.28-.984 2.659-1.772 4.136-2.265a16.76 16.76 0 0 1 5.021-.788c1.28 0 2.561.099 3.644.394 1.181.197 2.362.591 3.445.886 1.083.394 2.167.788 3.053 1.28s1.871.985 2.658 1.477l-3.349 6.696z"/><path d="M483.016 474.031H36.984a6.85 6.85 0 0 1-6.892-6.893V176.283a6.736 6.736 0 0 1 2.954-5.612l77.587-53.957c3.151-2.166 7.385-1.378 9.551 1.674s1.378 7.385-1.674 9.551l-74.634 51.988v280.32h432.147V179.729l-74.831-56.123c-3.052-2.265-3.643-6.597-1.378-9.649s6.597-3.643 9.649-1.378l77.588 58.19c1.771 1.28 2.757 3.348 2.757 5.514v290.855c.1 3.742-3.051 6.893-6.792 6.893z"/><path d="M260 367.396c-1.575 0-3.15-.492-4.431-1.574L32.652 181.6a6.892 6.892 0 0 1-.886-9.748 6.892 6.892 0 0 1 9.748-.886l218.585 180.579 218.585-180.579c2.953-2.461 7.285-1.969 9.747.886 2.462 2.954 1.97 7.286-.886 9.748L264.431 365.822c-1.281.985-2.856 1.574-4.431 1.574zM36.984 474.031c-2.166 0-4.233-.985-5.612-2.855-2.166-3.053-1.477-7.385 1.576-9.649l135.68-96.985c3.052-2.166 7.384-1.477 9.649 1.576 2.166 3.053 1.477 7.385-1.575 9.648l-135.68 96.985c-1.182.787-2.561 1.28-4.038 1.28zm446.032 0c-1.379 0-2.757-.395-4.037-1.28l-135.68-96.985c-3.053-2.166-3.841-6.498-1.576-9.648 2.167-3.053 6.499-3.84 9.649-1.576l135.681 96.985c3.052 2.166 3.84 6.498 1.575 9.649-1.379 1.771-3.545 2.855-5.612 2.855z"/><path d="M114.572 247.274a6.85 6.85 0 0 1-6.892-6.893V59.901a6.85 6.85 0 0 1 6.892-6.892h290.855a6.85 6.85 0 0 1 6.893 6.892v180.283c0 3.84-3.053 6.893-6.893 6.893s-6.893-3.053-6.893-6.893V66.794h-277.07v173.489c.001 3.84-3.052 6.991-6.892 6.991zm77.588 171.324h19.397v19.396H192.16zm38.794 0h19.397v19.396h-19.397zm38.695 0h19.397v19.396h-19.397zm38.794 0h19.396v19.396h-19.396z"/></symbol>
  <symbol id="collaborations" viewBox="0 0 100 100"><path d="M5273.1 2400.1v-2c0-2.8-5-4-9.7-4s-9.7 1.3-9.7 4v2c0 1.8.7 3.6 2 4.9l5 4.9c.3.3.4.6.4 1v6.4c0 .4.2.7.6.8l2.9.9c.5.1 1-.2 1-.8v-7.2c0-.4.2-.7.4-1l5.1-5c1.3-1.3 2-3.1 2-4.9zm-9.7-.1c-4.8 0-7.4-1.3-7.5-1.8.1-.5 2.7-1.8 7.5-1.8s7.3 1.3 7.5 1.8c-.2.5-2.7 1.8-7.5 1.8z"/><path d="M5268.4 2410.3c-.6 0-1 .4-1 1s.4 1 1 1h4.3c.6 0 1-.4 1-1s-.4-1-1-1h-4.3zm4.3 3.4h-4.3c-.6 0-1 .4-1 1s.4 1 1 1h4.3c.6 0 1-.4 1-1s-.4-1-1-1zm0 3.3h-4.3c-.6 0-1 .4-1 1s.4 1 1 1h4.3c.6 0 1-.4 1-1 0-.5-.4-1-1-1zM16.2 70.3l.7 5.3c.1.3 0 .6-.1.9L11 91.6c-.7 1.9 0 4.3 1.8 5.3.4.2.7.4 1.2.4 1.9.4 3.9-.6 4.7-2.4l3.5-8.2-.9-9.7-5.1-6.7z"/><path d="m41.4 51.3-7.4-1s-4.7-6.8-5.3-7.6c-.5-.7-1.5-2.3-2.6-3.1-1.5-1-3.3-1.4-5.1-1.1-2.4.5-4.3 2.6-4.6 5.1l-1.9 16.9c-.1 1 .2 2 .8 2.9L24 75.2c.4.5.6 1.2.7 1.8l1.5 16.2c.2 2.1 1.4 4 3.5 4.3.4.1.8.1 1.2 0 1.9-.3 3.6-1.9 3.5-3.9l-.9-19.2c0-.5-.2-1.1-.4-1.5 0 0-5.3-10-5.6-10.6-.2-.5-.2-1.1-.2-1.5s.5-7.2.5-7.2l1.4 2c.6.8 1.4 1.3 2.4 1.4l9.1 1.2h1c1.6-.2 2.9-1.6 2.9-3.3 0-1.9-1.4-3.4-3.2-3.6z"/><circle transform="rotate(-8.453 22.798 29.358)" cx="22.8" cy="29.4" r="7.3"/><path d="m88.9 91.7-5.8-15.1c-.1-.3-.1-.7-.1-.9l.7-5.3-4.9 6.8s0 .1-.1.1l-.9 9.5 3.5 8.3c.8 1.8 2.8 2.8 4.6 2.4.4-.1.8-.2 1.2-.4 1.9-1.1 2.6-3.5 1.8-5.4z"/><path d="m85.5 60.4-1.9-16.9c-.3-2.5-2.1-4.5-4.6-5.1-1.8-.3-3.6.1-5.1 1.1-1.1.8-2.1 2.4-2.6 3.1-.6.8-5.3 7.6-5.3 7.6l-7.4 1c-1.8.2-3.2 1.7-3.2 3.5.1 1.7 1.3 3.1 2.9 3.3h1l9.1-1.2c1-.1 1.8-.7 2.4-1.4l1.4-2s.5 6.7.5 7.2c0 .4.1 1.1-.2 1.5-.3.7-5.5 10.7-5.5 10.7-.3.5-.4 1-.4 1.5l-.9 19.2c-.1 2 1.6 3.6 3.5 3.9.4.1.8.1 1.2 0 2.1-.3 3.3-2.2 3.5-4.3l1.5-16.2c.1-.7.3-1.3.7-1.8l8.7-11.8c.6-.9.8-1.9.7-2.9z"/><circle transform="rotate(-81.541 77.21 29.357)" cx="77.2" cy="29.4" r="7.3"/><path d="M26.7 17.3c.7 0 1.5-.3 2-.9C33 10.9 41.2 7.5 50 7.5c6.7 0 13 1.9 17.5 5.2l-3.4.1c-1.4 0-2.5 1.2-2.5 2.6 0 1.4 1.2 2.5 2.5 2.5h.1l9.5-.3c.7 0 1.3-.3 1.8-.8s.7-1.1.7-1.8l-.3-9.5c0-1.4-1.2-2.5-2.6-2.5-1.4 0-2.5 1.2-2.5 2.6L71 9c-5.5-4.2-12.9-6.5-21-6.5-10.5 0-19.9 4-25.3 10.7-.9 1.1-.7 2.7.4 3.5.5.4 1 .6 1.6.6zM62.4 42c0-2.7-2.2-4.8-4.8-4.8-1.4 0-2.6.6-3.5 1.5l-8.1-4c0-.2.1-.5.1-.7 0-.3 0-.5-.1-.7l8.1-4c.9.9 2.1 1.5 3.5 1.5 2.7 0 4.8-2.2 4.8-4.8s-2.2-4.8-4.8-4.8c-2.7 0-4.8 2.2-4.8 4.8v.2l-8.4 4.1c-.8-.7-1.9-1.2-3.1-1.2-2.7 0-4.8 2.2-4.8 4.8 0 2.7 2.2 4.8 4.8 4.8 1.2 0 2.3-.4 3.1-1.2l8.4 4.1v.2c0 2.7 2.2 4.8 4.8 4.8 2.6.3 4.8-1.9 4.8-4.6z"/></symbol>
  <symbol id="demonstration" viewBox="0 0 100 100"><path d="M59.1 54.6c3.8 0 7.6-1.4 10.5-4.3 5.4-5.4 5.7-13.9 1.1-19.7l2.4-3.2c.5-.7.4-1.6-.3-2.1s-1.6-.4-2.1.3l-2.2 2.8c-5.8-4.8-14.5-4.5-19.9.9-5.8 5.8-5.8 15.2 0 21 2.9 2.9 6.7 4.3 10.5 4.3zm-8.4-23.1C53 29.1 56 28 59.1 28c2.7 0 5.4.9 7.6 2.8L56.3 44.4l-3.6-4.7c-.5-.7-1.4-.8-2.1-.3-.7.5-.8 1.4-.3 2.1l4.8 6.3c.3.4.7.6 1.2.6s.9-.2 1.2-.6L68.7 33c3.2 4.6 2.8 11-1.3 15.1-4.6 4.6-12.1 4.6-16.7 0-4.6-4.5-4.6-12 0-16.6zM40.3 85.6h37.4c.8 0 1.5-.7 1.5-1.5s-.7-1.5-1.5-1.5H40.3c-.8 0-1.5.7-1.5 1.5s.7 1.5 1.5 1.5zm0-10.3h37.4c.8 0 1.5-.7 1.5-1.5s-.7-1.5-1.5-1.5H40.3c-.8 0-1.5.7-1.5 1.5s.7 1.5 1.5 1.5zm0-10.2h37.4c.8 0 1.5-.7 1.5-1.5s-.7-1.5-1.5-1.5H40.3c-.8 0-1.5.7-1.5 1.5s.7 1.5 1.5 1.5z"/><path d="M89.6 3.5H28.5c-.8 0-1.5.7-1.5 1.5v14.7H10.4c-.8 0-1.5.7-1.5 1.5v64.7c0 5.8 4.7 10.6 10.6 10.6h61.1c5.8 0 10.6-4.7 10.6-10.6V5c-.1-.8-.7-1.5-1.6-1.5zM11.9 85.9V22.7H27v63.2c0 4.2-3.4 7.6-7.6 7.6s-7.5-3.4-7.5-7.6zm76.2 0c0 4.2-3.4 7.6-7.6 7.6H26.8v-.1c.1-.1.2-.3.4-.4.1-.1.2-.2.3-.4.1-.1.2-.3.3-.4.1-.1.2-.3.3-.4.1-.1.2-.3.3-.5.1-.1.2-.3.3-.4.1-.2.2-.3.2-.5.1-.1.1-.3.2-.4.1-.2.1-.4.2-.5.1-.1.1-.3.2-.4.1-.2.1-.4.2-.6 0-.1.1-.3.1-.4 0-.2.1-.5.1-.7 0-.1 0-.2.1-.4 0-.4.1-.7.1-1.1V6.5h58.1v79.4z"/></symbol>
  <symbol id="description" viewBox="0 0 100 100"><path d="M5273.1 2400.1v-2c0-2.8-5-4-9.7-4s-9.7 1.3-9.7 4v2c0 1.8.7 3.6 2 4.9l5 4.9c.3.3.4.6.4 1v6.4c0 .4.2.7.6.8l2.9.9c.5.1 1-.2 1-.8v-7.2c0-.4.2-.7.4-1l5.1-5c1.3-1.3 2-3.1 2-4.9zm-9.7-.1c-4.8 0-7.4-1.3-7.5-1.8.1-.5 2.7-1.8 7.5-1.8s7.3 1.3 7.5 1.8c-.2.5-2.7 1.8-7.5 1.8z"/><path d="M5268.4 2410.3c-.6 0-1 .4-1 1s.4 1 1 1h4.3c.6 0 1-.4 1-1s-.4-1-1-1h-4.3zm4.3 3.4h-4.3c-.6 0-1 .4-1 1s.4 1 1 1h4.3c.6 0 1-.4 1-1s-.4-1-1-1zm0 3.3h-4.3c-.6 0-1 .4-1 1s.4 1 1 1h4.3c.6 0 1-.4 1-1 0-.5-.4-1-1-1zM94.9 10.9H44.7c-1.5 0-2.6 1.2-2.6 2.6v22.2h5.3V16.1h44.9v43.5h-45v-6.3c-.5.1-1.1.2-1.6.2H42v8.8c0 1.5 1.2 2.6 2.6 2.6H67v9L56.7 84.3c-1 1-1 2.7 0 3.7s2.7 1 3.7 0l9.4-9.4 9.4 9.4c.5.5 1.2.8 1.9.8s1.3-.3 1.9-.8c1-1 1-2.7 0-3.7L72.4 73.8v-9h22.5c1.4 0 2.6-1.2 2.6-2.6V13.5c0-1.5-1.2-2.6-2.6-2.6z"/><path d="m47.2 47.5 1.8-4.7c.4-1-.4-2.1-1.4-2.1H14.2c-5.3 0-9.8 4-10.3 9.3L2.5 62.6c-.1 1.3.7 2.4 1.9 2.6 1.4.3 3.2.5 5.1.7L10.7 86c.1 1.7 1.5 3 3.2 3h9.7c1.7 0 3.1-1.3 3.2-3l1.7-34.5c0-1.7 1.4-3.1 3.2-3.1h14.1c.6.1 1.1-.3 1.4-.9z"/><circle cx="18.7" cy="27.2" r="10.6"/><path d="M57.4 28.9h24.8c1.5 0 2.6-1.2 2.6-2.6 0-1.5-1.2-2.6-2.6-2.6H57.4c-1.5 0-2.6 1.2-2.6 2.6 0 1.5 1.1 2.6 2.6 2.6zm0 11.6h24.8c1.5 0 2.6-1.2 2.6-2.6s-1.2-2.6-2.6-2.6H57.4c-1.5 0-2.6 1.2-2.6 2.6s1.1 2.6 2.6 2.6zm0 11.6h24.8c1.5 0 2.6-1.2 2.6-2.6s-1.2-2.6-2.6-2.6H57.4c-1.5 0-2.6 1.2-2.6 2.6s1.1 2.6 2.6 2.6z"/></symbol>
  <symbol id="design" viewBox="0 0 512 512"><path d="M29.657 258.343A8 8 0 0 0 16 264v224a8 8 0 0 0 8 8h224a8 8 0 0 0 5.657-13.657ZM32 480V283.313L228.687 480Z"/><path d="M72 448h64a8 8 0 0 0 5.657-13.657l-64-64A8 8 0 0 0 64 376v64a8 8 0 0 0 8 8Zm8-52.686L116.687 432H80ZM104 48h16v16h-16zm32 0h16v16h-16zm32 0h16v16h-16zm12.756 112.7A7.884 7.884 0 0 0 176 168v88a8 8 0 0 0 4.751 7.311l72 32a7.968 7.968 0 0 0 6.5-.006v.006l72-32A8 8 0 0 0 336 256v-88a7.884 7.884 0 0 0-4.756-7.3v-.011l-72-32a8.01 8.01 0 0 0-6.5 0l-72 32ZM248 275.69l-56-24.89v-70.49l56 24.89Zm72-24.89-56 24.89V205.2l56-24.889Zm-64-106.046L308.3 168 256 191.245 203.7 168ZM248 320h16v40h-16zm0-248h16v40h-16zm-131.447 79.22 6.896-14.438 33.5 16-6.896 14.438zm238.5 1.56 33.5-16.001 6.895 14.438-33.5 16zm-238.5 128.001 33.5-16.002 6.896 14.437-33.5 16.002z"/><path d="M488 384h-48V259.314l47.03-47.03a30.627 30.627 0 1 0-43.314-43.313L440 172.687V104a8 8 0 0 0-2.343-5.657l-80-80A8 8 0 0 0 352 16H104a32.036 32.036 0 0 0-32 32v232h16V48a16.019 16.019 0 0 1 16-16h240v48a32.036 32.036 0 0 0 32 32h48v76.686L298.343 314.343a8.008 8.008 0 0 0-2.188 4.088l-8 40a8 8 0 0 0 9.414 9.414l40-8a8 8 0 0 0 4.088-2.188L424 275.314V384H264a8 8 0 0 0-8 8v24h-40v16h40v24a8 8 0 0 0 8 8h224a8 8 0 0 0 8-8v-64a8 8 0 0 0-8-8ZM360 80V43.314L412.686 96H376a16.019 16.019 0 0 1-16-16Zm-44.686 240L440 195.314 460.686 216 336 340.686Zm150.059-144a14.628 14.628 0 0 1 10.343 24.971L472 204.686 451.314 184l3.716-3.716A14.529 14.529 0 0 1 465.373 176Zm-156.46 160.227 10.86 10.86L306.2 349.8ZM480 448H272v-48h16v16h16v-16h16v16h16v-16h16v16h16v-16h16v16h16v-16h16v16h16v-16h16v16h16v-16h16Z"/></symbol>
  <symbol id="menu" viewBox="0 0 100 100"><path d="M13 18.00001c-2.7614 0-5 2.2385-5 5 0 2.76149 2.2386 5 5 5h74c2.7614 0 5-2.23851 5-5 0-2.7615-2.2386-5-5-5zm0 26.99998c-2.7614 0-5 2.2385-5 5.00003 0 2.7615 2.2386 5 5 5h74c2.7614 0 5-2.2385 5-5 0-2.76153-2.2386-5.00003-5-5.00003zm0 27.00003c-2.7614 0-5 2.2385-5 5s2.2386 5 5 5h74c2.7614 0 5-2.2385 5-5s-2.2386-5-5-5z" /></symbol>
  <symbol id="model" viewBox="0 0 100 100"><path d="M90.05 6H10a6 6 0 0 0-6 5.89V67a6 6 0 0 0 6 6h30.73v8.37H30.55A6.56 6.56 0 0 0 24 87.88v5.17a1 1 0 0 0 1 1h50a1 1 0 0 0 1-1v-5.17a6.56 6.56 0 0 0-6.55-6.56H59.27V73h30.78a6 6 0 0 0 6-6V11.89a6 6 0 0 0-6-5.89Zm-20.6 77.32A4.56 4.56 0 0 1 74 87.88v4.17H26v-4.17a4.56 4.56 0 0 1 4.55-4.56Zm-26.72-2V73h14.54v8.37ZM94 67a4 4 0 0 1-4 4H10a4 4 0 0 1-4-4V25.59h88Zm0-43.41H6v-11.7A4 4 0 0 1 10 8h80.1a4 4 0 0 1 4 3.94Z"/><path d="m33.45 57.35 16.07 6.8a1.09 1.09 0 0 0 .35.07 1 1 0 0 0 .35-.07l16.07-6.8a1 1 0 0 0 .61-.92v-19a.84.84 0 0 0 0-.27v-.08a.8.8 0 0 0-.08-.16.24.24 0 0 0-.06-.09l-.11-.12a.27.27 0 0 0-.08-.07l-.1-.05h-.06L50.3 29.74a1.05 1.05 0 0 0-.78 0l-16.07 6.8h-.06l-.1.05-.08.07-.11.12-.1.22a.8.8 0 0 0-.08.16v.08a.84.84 0 0 0 0 .27v19a1 1 0 0 0 .53.84ZM65 55.77l-14.09 5.95v-16.8L65 39Zm-15.07-24 13.51 5.71-13.53 5.69-13.5-5.71ZM34.84 39l14.07 6v16.8l-14.07-6.03ZM15.7 11.21a5 5 0 1 0 5 5 5 5 0 0 0-5-5Zm0 7.91a3 3 0 1 1 3-2.95 2.95 2.95 0 0 1-3 2.95Zm15.48-7.91a5 5 0 1 0 5 5 5 5 0 0 0-5-5Zm0 7.91a3 3 0 1 1 3-2.95 3 3 0 0 1-3 2.95Zm15.48-7.91a5 5 0 1 0 5 5 5 5 0 0 0-5-5Zm0 7.91a3 3 0 1 1 3-2.95 3 3 0 0 1-3 2.95Z"/></symbol>
  <symbol id="notebook" viewBox="0 0 66 66"><path d="M4.5 7.5 1 10.4v47.9l3.5-3.5zm23.7 48.8H6l-3.5 3.5h29.4c-.1-2-1.7-3.5-3.7-3.5zm9.6 0c-2 0-3.6 1.5-3.7 3.5h29.4L60 56.3H37.8zM61.5 7.5v47.3l3.5 3.5V10.4zm-44.2 9.8h6.1V24h-6.1zm8.2-4.3H15.2v2.2h10.3V13zm-8.2 18.1c0 1.7 1.4 3.1 3.1 3.1s3.1-1.4 3.1-3.1v-5h-6.1v5z"/><path d="M26.2 6.2H6.6v48h21.6c1.4 0 2.7.5 3.7 1.3V11.9c0-3.1-2.5-5.7-5.7-5.7zM13 11.9c0-.6.5-1.1 1.1-1.1h12.5c.6 0 1.1.5 1.1 1.1v4.3c0 .6-.5 1.1-1.1 1.1h-1v13.8c0 2.9-2.3 5.2-5.2 5.2-2.9 0-5.2-2.3-5.2-5.2V17.3h-1c-.6 0-1.1-.5-1.1-1.1v-4.3zm14.3 37.6h-15c-.6 0-1.1-.5-1.1-1.1s.5-1.1 1.1-1.1h15c.6 0 1.1.5 1.1 1.1s-.5 1.1-1.1 1.1zm0-6.4h-15c-.6 0-1.1-.5-1.1-1.1s.5-1.1 1.1-1.1h15c.6 0 1.1.5 1.1 1.1s-.5 1.1-1.1 1.1z"/><circle cx="41.1" cy="44.7" r="1.6"/><circle cx="43" cy="30.4" r="1.6"/><path d="M59.4 54.2v-48H39.8c-3.1 0-5.7 2.6-5.7 5.7v43.6c1-.8 2.3-1.3 3.7-1.3h21.6zM38.7 10.9h15c.6 0 1.1.5 1.1 1.1s-.5 1-1.1 1h-15c-.6 0-1.1-.5-1.1-1.1s.5-1 1.1-1zm0 6.4h15c.6 0 1.1.5 1.1 1.1s-.5 1.1-1.1 1.1h-15c-.6 0-1.1-.5-1.1-1.1s.5-1.1 1.1-1.1zM41.1 41c1.3 0 2.4.6 3.1 1.6l5.3-1.7v-.1c0-.7.2-1.3.5-1.8l-5.2-5.3c-.5.3-1.1.4-1.7.4-2.1 0-3.7-1.7-3.7-3.7s1.7-3.7 3.7-3.7c2.1 0 3.7 1.7 3.7 3.7 0 .7-.2 1.3-.5 1.8l5.2 5.3c.5-.3 1.1-.4 1.7-.4 2.1 0 3.7 1.7 3.7 3.7 0 2.1-1.7 3.7-3.7 3.7-1.3 0-2.4-.6-3.1-1.6l-5.3 1.7v.1c0 2.1-1.7 3.7-3.7 3.7-2.1 0-3.7-1.7-3.7-3.7 0-2.1 1.6-3.7 3.7-3.7z"/><circle cx="53.2" cy="40.8" r="1.6"/></symbol>
  <symbol id="parts" viewBox="0 0 566.93 566.93"><path d="M283.5 462.6a6.8 6.8 0 0 1-3.4-1L109.8 363a6.8 6.8 0 0 1-3.3-5.8V222.4a6.8 6.8 0 0 1 10-5.9l170.3 97.3a6.7 6.7 0 0 1 3.4 5.9v136.1a6.8 6.8 0 0 1-6.7 6.8ZM120 353.3 276.7 444V323.6L120 234Z"/><path d="M283.5 462.6a6.8 6.8 0 0 1-6.8-6.8v-136a6.7 6.7 0 0 1 3.4-5.9l170.3-97.3a6.8 6.8 0 0 1 10 5.9v134.8a6.8 6.8 0 0 1-3.3 5.8l-170.2 98.7a6.8 6.8 0 0 1-3.4.9Zm6.7-139V444L447 353.3V234Zm-177-94.5a6.8 6.8 0 0 1-3.2-12.6l40.2-22.1a6.8 6.8 0 0 1 6.5 11.8l-40.2 22.1a6.7 6.7 0 0 1-3.3.8Zm105.1-57.7a6.8 6.8 0 0 1-3.2-12.6l26.5-14.6A6.8 6.8 0 1 1 248 156l-26.5 14.6a6.7 6.7 0 0 1-3.3.8Zm131 .4a6.7 6.7 0 0 1-3.2-.8l-27.2-15a6.8 6.8 0 1 1 6.5-11.8l27.2 15a6.8 6.8 0 0 1-3.3 12.6Z"/><path d="M453.7 229.1a6.7 6.7 0 0 1-3.2-.8L411.6 207a6.8 6.8 0 1 1 6.5-11.9l38.9 21.4a6.8 6.8 0 0 1-3.3 12.6Zm-170.2-63.9c-14.4 0-28-4.5-36.5-12-5.9-5.3-9-11.7-9-18.4 0-17.1 20-30.5 45.5-30.5s45.4 13.4 45.4 30.5v1a24.9 24.9 0 0 1-9 17.3c-8.4 7.6-22 12-36.4 12Zm0-47.4c-18.8 0-32 9-32 17 0 3.5 2.5 6.4 4.5 8.3 6 5.3 16.5 8.6 27.5 8.6 11.1 0 21.4-3.3 27.4-8.6 2-1.8 4.3-4.6 4.5-8v-.4c0-8-13.1-16.9-32-16.9Z"/><path d="M283.5 191.8c-25.5 0-45.5-13.3-45.5-30.4v-.6a6.8 6.8 0 0 1 13.6 0v.7c0 8 13 16.8 31.9 16.8s31.9-8.9 31.9-16.9v-.6a6.8 6.8 0 0 1 13.5-.2v.8c0 17-20 30.4-45.4 30.4Z"/><path d="M244.8 168.2a6.8 6.8 0 0 1-6.8-6.8v-26.6a6.8 6.8 0 0 1 6.8-6.8 6.8 6.8 0 0 1 6.7 6.7v26.8a6.8 6.8 0 0 1-6.7 6.7Zm77.3 0a6.8 6.8 0 0 1-6.7-6.8v-26.6a6.8 6.8 0 0 1 13.5 0v26.6a6.7 6.7 0 0 1-6.8 6.8Zm-38.6 90.4c-14.4 0-28-4.5-36.5-12-5.9-5.3-9-11.7-9-18.4 0-17.1 20-30.5 45.5-30.5s45.4 13.4 45.4 30.5v1a24.9 24.9 0 0 1-9 17.3c-8.4 7.6-22 12-36.4 12Zm0-47.4c-18.8 0-32 9-32 17 0 3.5 2.5 6.4 4.5 8.3 6 5.3 16.5 8.6 27.5 8.6s21.5-3.3 27.4-8.6c2-1.8 4.3-4.6 4.5-8v-.3c0-8-13.1-17-32-17Z"/><path d="M283.5 285.2c-25.5 0-45.5-13.3-45.5-30.4v-.6a6.8 6.8 0 0 1 13.6 0v.7c0 8 13 16.8 31.9 16.8s31.9-8.9 31.9-16.9v-.6a6.8 6.8 0 0 1 13.5-.2v.8c0 17-20 30.4-45.4 30.4Z"/><path d="M244.8 261.6a6.8 6.8 0 0 1-6.8-6.8v-26.6a6.8 6.8 0 0 1 6.8-6.8 6.8 6.8 0 0 1 6.7 6.7V255a6.8 6.8 0 0 1-6.7 6.7Zm77.3 0a6.8 6.8 0 0 1-6.7-6.8v-26.6a6.8 6.8 0 1 1 13.5 0v26.7a6.7 6.7 0 0 1-6.8 6.7Zm54.1-49.1c-14.4 0-28-4.5-36.5-12a25 25 0 0 1-9-18.4c0-17 20-30.4 45.5-30.4s45.4 13.3 45.4 30.4v1a25 25 0 0 1-9 17.3 55.4 55.4 0 0 1-36.4 12.1Zm0-47.3c-18.8 0-32 8.9-32 16.9 0 3.5 2.5 6.5 4.5 8.3 6 5.3 16.5 8.6 27.5 8.6 11.1 0 21.4-3.2 27.4-8.6 2-1.7 4.3-4.5 4.5-8v-.3c0-8-13.1-17-32-17Z"/><path d="M376.2 239.2c-25.5 0-45.4-13.4-45.4-30.4v-.7a6.8 6.8 0 0 1 13.5 0v.7c0 8 13 16.9 31.9 16.9s31.9-9 31.9-17v-.5a6.8 6.8 0 0 1 13.5-.1v.8c0 17-20 30.4-45.4 30.4Z"/><path d="M337.5 215.5a6.8 6.8 0 0 1-6.8-6.7V182a6.8 6.8 0 0 1 6.8-6.8 6.8 6.8 0 0 1 6.8 6.8v26.8a6.7 6.7 0 0 1-6.8 6.7Zm77.3 0a6.8 6.8 0 0 1-6.7-6.7V182a6.8 6.8 0 1 1 13.5 0v26.7a6.7 6.7 0 0 1-6.8 6.7Zm-222.7-3c-14.4 0-28-4.5-36.4-12-5.9-5.3-9-11.7-9-18.4 0-17 20-30.4 45.4-30.4s45.5 13.3 45.5 30.4v1a25 25 0 0 1-9 17.3 55.5 55.5 0 0 1-36.5 12.1Zm0-47.3c-18.8 0-31.9 8.9-31.9 16.9 0 3.5 2.4 6.5 4.5 8.3 6 5.3 16.4 8.6 27.4 8.6 11.2 0 21.5-3.2 27.5-8.6 2-1.7 4.3-4.5 4.4-8v-.3c0-8-13-17-31.9-17Z"/><path d="M192.1 239.2c-25.4 0-45.4-13.4-45.4-30.4v-.7a6.8 6.8 0 0 1 13.5 0v.7c0 8 13.1 16.9 32 16.9s31.9-9 31.9-17v-.5a6.8 6.8 0 0 1 13.4-.1v.8c0 17-19.9 30.4-45.4 30.4Z"/><path d="M153.5 215.5a6.8 6.8 0 0 1-6.8-6.7V182a6.8 6.8 0 0 1 6.7-6.8 6.8 6.8 0 0 1 6.8 6.8v26.8a6.7 6.7 0 0 1-6.7 6.7Zm77.3 0a6.8 6.8 0 0 1-6.8-6.7V182a6.8 6.8 0 0 1 13.5 0v26.7a6.7 6.7 0 0 1-6.7 6.7Z"/></symbol>
  <symbol id="parts2" viewBox="0 0 100 100"><path d="M66 83H34V66h32v17zm-30-2h28V68H36v13z"/><path d="M66 68H34V51h32v17zm-30-2h28V53H36v13z"/><path d="M45 53h-5c-.552 0-1-.447-1-1v-2.5c0-.552.448-1 1-1h5c.552 0 1 .448 1 1V52c0 .553-.448 1-1 1zm-4-2h3v-.5h-3v.5zm19 2h-5c-.553 0-1-.447-1-1v-2.5c0-.552.447-1 1-1h5c.553 0 1 .448 1 1V52c0 .553-.447 1-1 1zm-4-2h3v-.5h-3v.5zm9.341-2.84L33.84 42.535 36.828 25.8l31.501 5.625-2.988 16.735zM36.16 40.918l27.563 4.922 2.285-12.798-27.563-4.922-2.285 12.798z"/><path d="M47.48 29.718c-.059 0-.117-.005-.176-.016l-4.922-.879c-.543-.097-.906-.617-.809-1.16l.439-2.461c.046-.261.195-.493.413-.645.218-.152.486-.21.748-.164l4.922.879c.543.097.906.617.809 1.16l-.439 2.461c-.046.261-.195.493-.413.645-.169.118-.368.18-.572.18zm-3.761-2.688 2.953.527.088-.492-2.953-.527-.088.492zm18.528 5.324c-.059 0-.117-.005-.176-.016l-4.922-.879c-.544-.097-.905-.616-.809-1.16l.438-2.461c.047-.261.194-.493.412-.645s.486-.21.748-.164l4.922.879c.544.097.905.616.809 1.16l-.438 2.461c-.047.261-.194.493-.412.645-.169.118-.369.18-.572.18zm-3.762-2.687 2.953.527.087-.492-2.953-.527-.087.492z"/></symbol>
  <symbol id="protocols" viewBox="0 0 48 48"><path d="M40.1 43.6v-1.3c3.1-3.3 5.1-7.7 5.1-12.6 0-5.6-2.6-10.7-6.6-14-.2 1.6-1 2.9-2.2 3.9 2.7 2.5 4.4 6.1 4.4 10.1 0 1.7-.3 3.3-.9 4.8h-6v9H17.2V37l4.4 3.1 2.8-4L9.3 25.5l-2.8 4 5.4 3.8v10.3H0V48h48v-4.4h-7.9z"/><path d="m19.2 19.3-1.5 2.5 5.6 3.3 1.5-2.5 2.4 1.4 2-3.5c-2.1-1.1-3.5-3.2-3.5-5.7 0-3.5 2.9-6.4 6.4-6.4 1.3 0 2.4.4 3.4 1L37 7.1l-2.4-1.4L36 3.3 30.3 0l-1.4 2.5-2.4-1.4L16.8 18l2.4 1.3z"/><path d="M32.2 10.4c-2.4 0-4.4 2-4.4 4.4 0 2.4 2 4.4 4.4 4.4s4.4-2 4.4-4.4c0-2.4-2-4.4-4.4-4.4zm0 6.8c-1.3 0-2.4-1.1-2.4-2.4 0-1.3 1.1-2.4 2.4-2.4 1.3 0 2.4 1.1 2.4 2.4 0 1.4-1.1 2.4-2.4 2.4z"/></symbol>
  <symbol id="results" viewBox="0 0 100 100"><path d="M58.7 79H21c-.8 0-1.5.7-1.5 1.5S20.2 82 21 82h37.7c.8 0 1.5-.7 1.5-1.5s-.6-1.5-1.5-1.5zm0-10H21c-.8 0-1.5.7-1.5 1.5S20.2 72 21 72h37.7c.8 0 1.5-.7 1.5-1.5s-.6-1.5-1.5-1.5z"/><path d="M71 14.8H54.6c-1.9-2.7-4.7-4.6-7.9-5.4-.5-3.3-3.4-5.9-6.9-5.9-3.5 0-6.4 2.6-6.9 5.9-3.2.8-5.9 2.7-7.9 5.4H8.7c-.8 0-1.5.7-1.5 1.5V95c0 .8.7 1.5 1.5 1.5H71c.8 0 1.5-.7 1.5-1.5V16.3c0-.9-.7-1.5-1.5-1.5zm-36.3-2.7c.7-.1 1.3-.8 1.3-1.5v-.1c0-2.2 1.8-4 4-4s4 1.8 4 4v.2c0 .7.5 1.4 1.3 1.5 3.1.5 5.8 2.3 7.5 5 .8 1.3 1.3 2.7 1.6 4.2H25.6c.2-1.5.7-2.9 1.6-4.2 1.6-2.8 4.4-4.6 7.5-5.1zm34.8 81.4H10.2V17.8h13.2v.1c-.3.7-.5 1.5-.6 2.2 0 .1 0 .2-.1.3 0 .3-.1.6-.1.9v.3c0 .4-.1.8-.1 1.2 0 .8.7 1.5 1.5 1.5h31.7c.8 0 1.5-.7 1.5-1.5 0-.4 0-.8-.1-1.2v-.3c0-.3-.1-.6-.1-.9 0-.1 0-.2-.1-.3-.1-.4-.2-.8-.3-1.1-.1-.4-.2-.7-.4-1.1v-.1h13.2v75.7zm15.4-73.8c-4.3 0-7.9 3.5-7.9 7.9v49.3c0 .1.1.2.1.2v.1l6.4 11c.3.5.8.7 1.3.7s1-.3 1.3-.7l6.4-11v-.1c0-.1.1-.2.1-.2V27.6c.2-4.3-3.4-7.9-7.7-7.9zM80 74.9V32h9.8v42.8H80zm4.9-52.2c2.7 0 4.9 2.2 4.9 4.9V29H80v-1.4c0-2.7 2.2-4.9 4.9-4.9zm0 61.7-3.8-6.5h7.5l-3.7 6.5z"/><path d="M55.7 33.1c0-.8-.7-1.5-1.5-1.5h-6.5c-.8 0-1.5.7-1.5 1.5v26.3h-1.6V44c0-.8-.7-1.5-1.5-1.5h-6.5c-.8 0-1.5.7-1.5 1.5v15.4h-1.6v-20c0-.8-.7-1.5-1.5-1.5h-6.5c-.8 0-1.5.7-1.5 1.5v20.1h-3c-.8 0-1.5.7-1.5 1.5s.7 1.5 1.5 1.5h37.7c.8 0 1.5-.7 1.5-1.5s-.7-1.5-1.5-1.5h-3V33.1zM27.1 59.4V40.9h3.5v18.6h-3.5zm11 0V45.5h3.5v13.9h-3.5zm11.1 0V34.6h3.5v24.8h-3.5z"/></symbol>
  <symbol id="safety" viewBox="-346 256 100 100"><path d="M-275.523 271.454c-10.806 0-20.926 6.548-25.785 14.897h4.518c8.182 0 15.035 4.732 16.771 11.047h10.256c3.906.233 11.032 2.89 11.032 11.312 0 5.621-2.754 8.438-5.065 9.812a2.273 2.273 0 0 1-3.118-.792 2.275 2.275 0 0 1 .789-3.117c1.915-1.137 2.846-3.067 2.846-5.903 0-6.293-6.353-6.751-6.622-6.769l-9.738.003c-.445 6.119-3.963 12.743-17.15 12.743h-14.537l-1.734 3.649a2.286 2.286 0 0 0-.184.924 2.374 2.374 0 0 0 2.377 2.377h5.814v6.936c0 8.887 5.206 11.649 11.638 11.649h3.948v9.039h32.179v-22.82c6.869-5.401 11.29-16.041 11.29-25.457-.002-16.312-13.213-29.53-29.525-29.53z"/><path d="M-316.677 314.671v-28.364h15.395s-.686 1.035-1.191 2.25c-.507 1.214-.874 2.302-.874 2.302h-8.777v19.363h2.896l-2.092 4.449h-5.357z"/><path d="M-297 290.816h-6.328c-.193.589-.374 1.18-.512 1.776-.569 2.463-1.215 8.9-1.215 8.9l-4.15 8.729H-297c11.291 0 12.741-5.184 12.741-9.702 0-5.349-5.716-9.703-12.741-9.703zm1.244 14.013a2.967 2.967 0 1 1 0-5.934 2.967 2.967 0 0 1 0 5.934zm-50.145 17.48v3.413l20.906-13.265.046 7.502 6.721-15.22zm0 13.561v3.413l20.906-13.266.046 7.504 6.721-15.222zm16.668-46.44 5.226-2.57h-13.178l5.692 10.058.14-5.435 7.406 5.871-21.954 13.937v3.414l26.92-17.094z"/></symbol>
  <symbol id="team" viewBox="0 0 128 128"><path d="M64 54.62a24.61 24.61 0 0 0 10.87-2.53l8.76 15-9-2.21a2 2 0 0 0-1 3.89l13.6 3.33a2 2 0 0 0 .48.06 2.22 2.22 0 0 0 .45-.06h.11a1.57 1.57 0 0 0 .42-.18h.07l.2-.15.11-.09.15-.17.09-.11.12-.21.06-.11a1.34 1.34 0 0 0 .09-.24.38.38 0 0 0 0-.1L93 57a2 2 0 0 0-3.88-1L87 64.84 78.3 50A24.65 24.65 0 1 0 64 54.62Zm-12.27-8.07a12.31 12.31 0 0 1 24.54 0 20.53 20.53 0 0 1-24.54 0Zm6.35-21.29A5.92 5.92 0 1 1 64 31.19a5.93 5.93 0 0 1-5.92-5.93ZM64 9.27a20.66 20.66 0 0 1 15.75 34 16.36 16.36 0 0 0-9.11-10.7 9.92 9.92 0 1 0-13.28 0 16.36 16.36 0 0 0-9.11 10.7A20.66 20.66 0 0 1 64 9.27Zm39.33 64.11A24.7 24.7 0 0 0 78.74 96H61.83l6.58-6.59a2 2 0 0 0-2.82-2.82l-10 10a1.79 1.79 0 0 0-.25.31.55.55 0 0 0-.08.15 1.28 1.28 0 0 0-.11.2l-.06.2a.84.84 0 0 0-.05.17 2 2 0 0 0 0 .78.84.84 0 0 0 .05.17l.06.2a1.28 1.28 0 0 0 .11.2.55.55 0 0 0 .08.15 1.79 1.79 0 0 0 .25.31l10 10a2 2 0 0 0 2.82-2.82L61.83 100h16.9a24.67 24.67 0 1 0 24.6-26.62Zm-12.27 41.28a12.3 12.3 0 0 1 24.53 0 20.52 20.52 0 0 1-24.53 0Zm6.34-21.28a5.93 5.93 0 1 1 5.93 5.92 5.94 5.94 0 0 1-5.93-5.92Zm21.67 18a16.35 16.35 0 0 0-9.1-10.69 9.93 9.93 0 1 0-13.29 0 16.35 16.35 0 0 0-9.1 10.69 20.68 20.68 0 1 1 31.49 0ZM49.72 57.17a.54.54 0 0 0 0-.11l-.09-.24-.1-.15-.11-.18-.14-.14-.13-.14-.21-.14-.1-.07-.23-.11-.13-.05a2 2 0 0 0-1.11 0L33.8 59.73a2 2 0 1 0 1.12 3.84l8.7-2.57-8.39 14.76a24.72 24.72 0 1 0 3.46 2l8.51-14.93 2.59 8.9a2 2 0 0 0 1.92 1.44 1.81 1.81 0 0 0 .56-.08 2 2 0 0 0 1.36-2.48Zm-37.31 57.49a12.3 12.3 0 0 1 24.53 0 20.52 20.52 0 0 1-24.53 0Zm6.34-21.28a5.93 5.93 0 1 1 5.92 5.92 5.93 5.93 0 0 1-5.92-5.92Zm26.6 4.68a20.56 20.56 0 0 1-4.93 13.36 16.35 16.35 0 0 0-9.1-10.69 9.93 9.93 0 1 0-13.29 0 16.35 16.35 0 0 0-9.1 10.69 20.67 20.67 0 1 1 36.42-13.36Z"/></symbol>
</svg>
