<svg xmlns="http://www.w3.org/2000/svg" xmlns:xlink="http://www.w3.org/1999/xlink" version="1.1" x="0px" y="0px" viewBox="0 0 512 512" enable-background="new 0 0 512 512" xml:space="preserve"><g><g><g><path d="M315.729,66.794c-1.379,0-2.757-0.394-3.938-1.28L260,29.575l-51.791,36.037c-3.15,2.166-7.384,1.378-9.55-1.674     c-2.167-3.151-1.379-7.385,1.674-9.551l55.729-38.892c2.363-1.674,5.514-1.674,7.877,0l55.729,38.793     c3.15,2.167,3.938,6.499,1.674,9.551C320.062,65.809,317.896,66.794,315.729,66.794z"/></g><g><g><path d="M187.828,140.345h-10.831v28.554h-8.271v-28.554h-10.929v-7.286h30.129L187.828,140.345L187.828,140.345z"/><path d="M222.782,133.157v35.84h-8.271v-14.671h-14.277v14.671h-8.172v-35.84h8.271v13.883h14.277v-13.883L222.782,133.157      L222.782,133.157z"/><path d="M239.323,133.157h7.483l13.095,35.84h-8.468l-2.855-8.074h-11.126l-2.757,8.074h-8.468L239.323,133.157z       M247.298,155.212l-4.135-12.702l-4.234,12.702H247.298z"/><path d="M271.717,148.517v20.48h-8.271v-35.84h6.499l16.639,21.071v-21.071h8.271v35.84h-6.695L271.717,148.517z"/><path d="M301.748,168.997v-35.84h8.271v15.458l13.096-15.458h9.354l-13.391,15.951l14.375,19.889H324l-10.24-14.474l-3.741,3.84      v10.535L301.748,168.997L301.748,168.997z"/><path d="M357.575,143.692c-0.099-0.099-0.492-0.394-1.083-0.788c-0.591-0.394-1.378-0.788-2.265-1.182      c-0.886-0.394-1.969-0.788-3.052-1.083c-1.084-0.295-2.167-0.493-3.151-0.493c-3.052,0-4.431,0.985-4.431,3.053      c0,0.591,0.197,1.083,0.492,1.575c0.296,0.394,0.788,0.788,1.478,1.083c0.591,0.295,1.378,0.591,2.362,0.886      c0.985,0.295,2.068,0.591,3.25,0.886c1.771,0.492,3.249,0.984,4.627,1.575c1.379,0.591,2.561,1.28,3.446,2.068      c0.984,0.886,1.772,1.871,2.265,3.052s0.788,2.658,0.788,4.234c0,2.068-0.395,3.643-1.182,5.12      c-0.788,1.378-1.772,2.56-3.053,3.348c-1.279,0.886-2.757,1.477-4.233,1.871c-1.478,0.394-3.249,0.591-5.021,0.591      c-1.379,0-2.658-0.099-4.037-0.295s-2.757-0.492-4.037-0.886c-1.378-0.394-2.658-0.886-3.741-1.378      c-1.28-0.591-2.363-1.182-3.348-1.871l3.544-7.188c0.099,0.197,0.591,0.493,1.379,0.985s1.674,0.984,2.757,1.477      c1.083,0.492,2.363,0.886,3.644,1.28c1.378,0.394,2.757,0.591,4.036,0.591c2.954,0,4.333-0.886,4.333-2.757      c0-0.689-0.197-1.28-0.689-1.674c-0.492-0.492-1.083-0.886-1.871-1.182c-0.787-0.394-1.674-0.689-2.757-0.984      c-1.083-0.296-2.265-0.689-3.446-0.985c-1.674-0.492-3.052-1.083-4.233-1.674s-2.265-1.28-3.053-2.068      c-0.787-0.788-1.378-1.674-1.772-2.757c-0.394-0.984-0.59-2.265-0.59-3.446c0-1.871,0.394-3.544,1.083-5.021      c0.688-1.477,1.674-2.757,2.953-3.643c1.28-0.984,2.659-1.772,4.136-2.265c1.575-0.492,3.249-0.788,5.021-0.788      c1.28,0,2.561,0.099,3.644,0.394c1.181,0.197,2.362,0.591,3.445,0.886c1.083,0.394,2.167,0.788,3.053,1.28      s1.871,0.985,2.658,1.477L357.575,143.692z"/></g><g><path d="M483.016,474.031H36.984c-3.84,0-6.892-3.053-6.892-6.893V176.283c0-2.265,1.083-4.333,2.954-5.612l77.587-53.957      c3.151-2.166,7.385-1.378,9.551,1.674s1.378,7.385-1.674,9.551l-74.634,51.988v280.32h432.147V179.729l-74.831-56.123      c-3.052-2.265-3.643-6.597-1.378-9.649s6.597-3.643,9.649-1.378l77.588,58.19c1.771,1.28,2.757,3.348,2.757,5.514v290.855      C489.908,470.88,486.757,474.031,483.016,474.031z"/></g><g><path d="M260,367.396c-1.575,0-3.15-0.492-4.431-1.574L32.652,181.6c-2.954-2.461-3.348-6.794-0.886-9.748      c2.461-2.954,6.794-3.348,9.748-0.886l218.585,180.579l218.585-180.579c2.953-2.461,7.285-1.969,9.747,0.886      c2.462,2.954,1.97,7.286-0.886,9.748L264.431,365.822C263.15,366.807,261.575,367.396,260,367.396z"/></g><g><path d="M36.984,474.031c-2.166,0-4.233-0.985-5.612-2.855c-2.166-3.053-1.477-7.385,1.576-9.649l135.68-96.985      c3.052-2.166,7.384-1.477,9.649,1.576c2.166,3.053,1.477,7.385-1.575,9.648l-135.68,96.985      C39.84,473.538,38.461,474.031,36.984,474.031z"/></g><g><path d="M483.016,474.031c-1.379,0-2.757-0.395-4.037-1.28l-135.68-96.985c-3.053-2.166-3.841-6.498-1.576-9.648      c2.167-3.053,6.499-3.84,9.649-1.576l135.681,96.985c3.052,2.166,3.84,6.498,1.575,9.649      C487.249,472.947,485.083,474.031,483.016,474.031z"/></g><g><path d="M114.572,247.274c-3.84,0-6.892-3.052-6.892-6.893V59.901c0-3.84,3.052-6.892,6.892-6.892h290.855      c3.84,0,6.893,3.052,6.893,6.892v180.283c0,3.84-3.053,6.893-6.893,6.893s-6.893-3.053-6.893-6.893V66.794h-277.07v173.489      C121.465,244.123,118.412,247.274,114.572,247.274z"/></g><g><rect x="192.16" y="418.598" width="19.397" height="19.396"/><rect x="230.954" y="418.598" width="19.397" height="19.396"/><rect x="269.649" y="418.598" width="19.397" height="19.396"/><rect x="308.443" y="418.598" width="19.396" height="19.396"/></g></g></g></g></svg>
