<svg xmlns="http://www.w3.org/2000/svg" viewBox="0 0 566.93 566.93" x="0px" y="0px"><title>a</title><g><path d="M283.466,462.6a6.752,6.752,0,0,1-3.386-.91L109.838,363a6.751,6.751,0,0,1-3.364-5.84V222.383a6.75,6.75,0,0,1,10.1-5.86L286.814,313.8a6.749,6.749,0,0,1,3.4,5.86V455.847a6.75,6.75,0,0,1-6.75,6.75ZM119.973,353.268l156.742,90.864V323.576L119.973,234.014Z"/><path d="M283.466,462.6a6.75,6.75,0,0,1-6.75-6.75V319.659a6.749,6.749,0,0,1,3.4-5.86l170.241-97.276a6.75,6.75,0,0,1,10.1,5.86V357.157a6.751,6.751,0,0,1-3.364,5.84L286.851,461.687A6.752,6.752,0,0,1,283.466,462.6Zm6.75-139.021V444.132l156.741-90.864V234.014Z"/><path d="M113.23,229.134a6.751,6.751,0,0,1-3.255-12.668l40.27-22.11a6.75,6.75,0,0,1,6.5,11.834l-40.27,22.11A6.727,6.727,0,0,1,113.23,229.134Z"/><path d="M218.33,171.434a6.751,6.751,0,0,1-3.255-12.668l26.5-14.55a6.75,6.75,0,1,1,6.5,11.834l-26.5,14.55A6.727,6.727,0,0,1,218.33,171.434Z"/><path d="M349.318,171.814a6.72,6.72,0,0,1-3.242-.834L318.9,156.06a6.75,6.75,0,1,1,6.5-11.834l27.18,14.92a6.751,6.751,0,0,1-3.254,12.668Z"/><path d="M453.7,229.134a6.727,6.727,0,0,1-3.243-.834l-38.85-21.33a6.75,6.75,0,1,1,6.5-11.834l38.85,21.33a6.751,6.751,0,0,1-3.255,12.668Z"/><g><path d="M283.464,165.173c-14.4,0-28.03-4.51-36.455-12.064-5.864-5.257-8.965-11.6-8.965-18.355,0-17.058,19.951-30.42,45.42-30.42s45.421,13.362,45.421,30.42c0,.313-.011.615-.022.926l-.006.146c-.312,6.344-3.4,12.319-8.923,17.281C311.5,160.663,297.872,165.173,283.464,165.173Zm0-47.34c-18.811,0-31.92,8.917-31.92,16.92,0,3.547,2.435,6.474,4.477,8.3,5.928,5.314,16.443,8.616,27.443,8.616,11.174,0,21.437-3.221,27.454-8.615,1.938-1.741,4.289-4.527,4.454-7.9.006-.149.013-.277.013-.409C315.385,126.75,302.275,117.833,283.464,117.833Z"/><path d="M283.464,191.833c-25.469,0-45.42-13.362-45.42-30.42l.011-.61a6.75,6.75,0,0,1,13.5,0c0,.284-.006.508-.011.665v-.055c0,8,13.109,16.92,31.92,16.92s31.921-8.917,31.921-16.92l0-.262c-.006-.12-.009-.228-.009-.349a6.75,6.75,0,0,1,13.5-.169c.01.259.012.524.012.779C328.885,178.471,308.933,191.833,283.464,191.833Z"/><path d="M244.794,168.163a6.75,6.75,0,0,1-6.75-6.75l.011-.61c.049-4.114-.01-25.812-.011-26.031A6.751,6.751,0,0,1,244.775,128h.019a6.75,6.75,0,0,1,6.75,6.731c0,.9.061,22.018.01,26.149,0,.2,0,.427-.01.584v-.055A6.75,6.75,0,0,1,244.794,168.163Z"/><path d="M322.114,168.182a6.766,6.766,0,0,1-6.75-6.769l.01-.61v-.121c.043-4.047-.008-24.311-.01-25.171v-.758a6.75,6.75,0,0,1,13.5,0v.74c0,.847.053,21.2.01,25.331,0,.255,0,.474-.009.626A6.734,6.734,0,0,1,322.114,168.182Z"/></g><g><path d="M283.464,258.578c-14.4,0-28.028-4.51-36.455-12.063-5.864-5.258-8.965-11.6-8.965-18.356,0-17.058,19.951-30.42,45.42-30.42s45.421,13.362,45.421,30.42c0,.313-.011.615-.022.926l-.006.146c-.312,6.344-3.4,12.319-8.923,17.281C311.5,254.069,297.871,258.578,283.464,258.578Zm0-47.34c-18.811,0-31.92,8.917-31.92,16.92,0,3.547,2.435,6.474,4.477,8.3,5.928,5.314,16.444,8.616,27.443,8.616s21.526-3.3,27.454-8.616c1.938-1.74,4.289-4.526,4.454-7.895.006-.149.013-.277.013-.409C315.385,220.155,302.275,211.238,283.464,211.238Z"/><path d="M283.464,285.238c-25.469,0-45.42-13.362-45.42-30.42l.011-.61a6.75,6.75,0,0,1,13.5,0c0,.283-.006.507-.011.664v-.054c0,8,13.109,16.92,31.92,16.92s31.921-8.917,31.921-16.92l0-.262c-.006-.12-.009-.228-.009-.349a6.75,6.75,0,0,1,13.5-.169c.01.259.012.524.012.779C328.885,271.876,308.933,285.238,283.464,285.238Z"/><path d="M244.794,261.569a6.75,6.75,0,0,1-6.75-6.75l.011-.61c.049-4.114-.01-25.812-.011-26.031a6.751,6.751,0,0,1,6.731-6.769h.019a6.75,6.75,0,0,1,6.75,6.731c0,.9.061,22.018.01,26.149,0,.2,0,.426-.01.583v-.054A6.75,6.75,0,0,1,244.794,261.569Z"/><path d="M322.114,261.587a6.766,6.766,0,0,1-6.75-6.769l.01-.61v-.121c.043-4.047-.008-24.311-.01-25.171v-.758a6.75,6.75,0,1,1,13.5,0v.74c0,.847.053,21.2.01,25.331,0,.254,0,.473-.009.625A6.735,6.735,0,0,1,322.114,261.587Z"/></g><g><path d="M376.171,212.513c-14.4,0-28.031-4.51-36.456-12.064-5.864-5.256-8.964-11.6-8.964-18.355,0-17.058,19.951-30.42,45.42-30.42s45.42,13.362,45.42,30.42c0,.33-.011.647-.023.977-.317,6.441-3.4,12.417-8.928,17.376C404.212,208,390.579,212.513,376.171,212.513Zm0-47.34c-18.811,0-31.92,8.917-31.92,16.92,0,3.548,2.434,6.474,4.475,8.3,5.929,5.314,16.444,8.616,27.445,8.616,11.174,0,21.437-3.221,27.454-8.615,1.938-1.741,4.288-4.526,4.454-7.9,0-.109.012-.256.012-.407C408.091,174.09,394.981,165.173,376.171,165.173Z"/><path d="M376.171,239.173c-25.469,0-45.42-13.362-45.42-30.42l.01-.61a6.75,6.75,0,0,1,13.5,0c0,.276,0,.5-.01.647,0,7.966,13.109,16.883,31.92,16.883s31.92-8.917,31.92-16.92c0-.094,0-.191,0-.286s-.008-.236-.008-.324a6.75,6.75,0,0,1,13.5-.153c.009.254.011.514.011.764C421.591,225.811,401.639,239.173,376.171,239.173Z"/><path d="M337.5,215.522a6.766,6.766,0,0,1-6.75-6.769l.01-.61c.049-4.114-.009-25.812-.01-26.031a6.75,6.75,0,0,1,6.731-6.769h.019a6.75,6.75,0,0,1,6.75,6.731c0,.9.06,22.018.009,26.149,0,.2,0,.414-.008.566A6.734,6.734,0,0,1,337.5,215.522Z"/><path d="M414.821,215.522a6.766,6.766,0,0,1-6.75-6.769l.01-.61v-.121c.043-4.047-.008-24.311-.01-25.171v-.758a6.75,6.75,0,1,1,13.5,0v.74c0,.847.053,21.2.01,25.331,0,.255,0,.474-.009.626A6.734,6.734,0,0,1,414.821,215.522Z"/></g><g><path d="M192.134,212.513c-14.4,0-28.031-4.51-36.456-12.064-5.864-5.256-8.964-11.6-8.964-18.355,0-17.058,19.951-30.42,45.42-30.42s45.42,13.362,45.42,30.42c0,.33-.011.647-.023.977-.317,6.441-3.4,12.417-8.928,17.376C220.175,208,206.542,212.513,192.134,212.513Zm0-47.34c-18.811,0-31.92,8.917-31.92,16.92,0,3.548,2.434,6.474,4.475,8.3,5.929,5.314,16.444,8.616,27.445,8.616,11.174,0,21.437-3.221,27.454-8.615,1.938-1.741,4.288-4.526,4.454-7.9,0-.109.012-.256.012-.407C224.054,174.09,210.944,165.173,192.134,165.173Z"/><path d="M192.134,239.173c-25.469,0-45.42-13.362-45.42-30.42l.01-.61a6.75,6.75,0,0,1,13.5,0c0,.276,0,.5-.01.647,0,7.966,13.109,16.883,31.92,16.883s31.92-8.917,31.92-16.92c0-.094,0-.191,0-.286s-.008-.236-.008-.324a6.75,6.75,0,0,1,13.5-.153c.009.254.011.514.011.764C237.554,225.811,217.6,239.173,192.134,239.173Z"/><path d="M153.464,215.522a6.766,6.766,0,0,1-6.75-6.769l.01-.61c.049-4.114-.009-25.812-.01-26.031a6.75,6.75,0,0,1,6.731-6.769h.019a6.75,6.75,0,0,1,6.75,6.731c0,.9.06,22.018.009,26.149,0,.2,0,.414-.008.566A6.734,6.734,0,0,1,153.464,215.522Z"/><path d="M230.784,215.522a6.766,6.766,0,0,1-6.75-6.769l.01-.61v-.121c.043-4.047-.008-24.311-.01-25.171v-.758a6.75,6.75,0,0,1,13.5,0v.74c0,.847.053,21.2.01,25.331,0,.255,0,.474-.009.626A6.734,6.734,0,0,1,230.784,215.522Z"/></g></g></svg>
