<svg xmlns="http://www.w3.org/2000/svg" xmlns:xlink="http://www.w3.org/1999/xlink" version="1.1" x="0px" y="0px" viewBox="0 0 100 100" style="enable-background:new 0 0 100 100;" xml:space="preserve"><g><path d="M59.1,54.6c3.8,0,7.6-1.4,10.5-4.3c5.4-5.4,5.7-13.9,1.1-19.7l2.4-3.2c0.5-0.7,0.4-1.6-0.3-2.1c-0.7-0.5-1.6-0.4-2.1,0.3   l-2.2,2.8c-5.8-4.8-14.5-4.5-19.9,0.9c-5.8,5.8-5.8,15.2,0,21C51.5,53.2,55.3,54.6,59.1,54.6z M50.7,31.5C53,29.1,56,28,59.1,28   c2.7,0,5.4,0.9,7.6,2.8L56.3,44.4l-3.6-4.7c-0.5-0.7-1.4-0.8-2.1-0.3c-0.7,0.5-0.8,1.4-0.3,2.1l4.8,6.3c0.3,0.4,0.7,0.6,1.2,0.6   s0.9-0.2,1.2-0.6L68.7,33c3.2,4.6,2.8,11-1.3,15.1c-4.6,4.6-12.1,4.6-16.7,0C46.1,43.6,46.1,36.1,50.7,31.5z"/><path d="M40.3,85.6h37.4c0.8,0,1.5-0.7,1.5-1.5s-0.7-1.5-1.5-1.5H40.3c-0.8,0-1.5,0.7-1.5,1.5S39.5,85.6,40.3,85.6z"/><path d="M40.3,75.3h37.4c0.8,0,1.5-0.7,1.5-1.5s-0.7-1.5-1.5-1.5H40.3c-0.8,0-1.5,0.7-1.5,1.5S39.5,75.3,40.3,75.3z"/><path d="M40.3,65.1h37.4c0.8,0,1.5-0.7,1.5-1.5s-0.7-1.5-1.5-1.5H40.3c-0.8,0-1.5,0.7-1.5,1.5S39.5,65.1,40.3,65.1z"/><path d="M89.6,3.5H28.5C27.7,3.5,27,4.2,27,5v14.7H10.4c-0.8,0-1.5,0.7-1.5,1.5v64.7c0,5.8,4.7,10.6,10.6,10.6h61.1   c5.8,0,10.6-4.7,10.6-10.6V5C91.1,4.2,90.5,3.5,89.6,3.5z M11.9,85.9V22.7H27v63.2c0,4.2-3.4,7.6-7.6,7.6S11.9,90.1,11.9,85.9z    M88.1,85.9c0,4.2-3.4,7.6-7.6,7.6H26.8c0,0,0,0,0-0.1c0.1-0.1,0.2-0.3,0.4-0.4c0.1-0.1,0.2-0.2,0.3-0.4c0.1-0.1,0.2-0.3,0.3-0.4   c0.1-0.1,0.2-0.3,0.3-0.4c0.1-0.1,0.2-0.3,0.3-0.5c0.1-0.1,0.2-0.3,0.3-0.4c0.1-0.2,0.2-0.3,0.2-0.5c0.1-0.1,0.1-0.3,0.2-0.4   c0.1-0.2,0.1-0.4,0.2-0.5c0.1-0.1,0.1-0.3,0.2-0.4c0.1-0.2,0.1-0.4,0.2-0.6c0-0.1,0.1-0.3,0.1-0.4c0-0.2,0.1-0.5,0.1-0.7   c0-0.1,0-0.2,0.1-0.4c0-0.4,0.1-0.7,0.1-1.1V21.2V6.5h58.1V85.9z"/></g></svg>
