<svg xmlns:dc="http://purl.org/dc/elements/1.1/" xmlns:cc="http://creativecommons.org/ns#" xmlns:rdf="http://www.w3.org/1999/02/22-rdf-syntax-ns#" xmlns:svg="http://www.w3.org/2000/svg" xmlns="http://www.w3.org/2000/svg" xmlns:sodipodi="http://sodipodi.sourceforge.net/DTD/sodipodi-0.dtd" xmlns:inkscape="http://www.inkscape.org/namespaces/inkscape" version="1.1" x="0px" y="0px" viewBox="0 0 100 100"><g transform="translate(0,-952.36218)"><path style="text-indent:0;text-transform:none;direction:ltr;block-progression:tb;baseline-shift:baseline;color:#000000;enable-background:accumulate;" d="m 13,970.36219 c -2.7614,0 -4.9999999,2.2385 -4.9999999,5 0,2.76149 2.2385999,5 4.9999999,5 l 74,0 c 2.7614,0 5,-2.23851 5,-5 0,-2.7615 -2.2386,-5 -5,-5 z m 0,26.99998 c -2.7614,0 -4.9999999,2.2385 -4.9999999,5.00003 0,2.7615 2.2385999,5 4.9999999,5 l 74,0 c 2.7614,0 5,-2.2385 5,-5 0,-2.76153 -2.2386,-5.00003 -5,-5.00003 z m 0,27.00003 c -2.7614,0 -4.9999999,2.2385 -4.9999999,5 0,2.7615 2.2385999,5 4.9999999,5 l 74,0 c 2.7614,0 5,-2.2385 5,-5 0,-2.7615 -2.2386,-5 -5,-5 z" fill="#000000" fill-opacity="1" stroke="none" marker="none" visibility="visible" display="inline" overflow="visible"/></g></svg>
