<svg xmlns="http://www.w3.org/2000/svg" xmlns:xlink="http://www.w3.org/1999/xlink" version="1.1" x="0px" y="0px" viewBox="0 0 48 48" style="enable-background:new 0 0 48 48;" xml:space="preserve"><g><path d="M40.1,43.6v-1.3c3.1-3.3,5.1-7.7,5.1-12.6c0-5.6-2.6-10.7-6.6-14c-0.2,1.6-1,2.9-2.2,3.9c2.7,2.5,4.4,6.1,4.4,10.1   c0,1.7-0.3,3.3-0.9,4.8h-6v9H17.2V37l4.4,3.1l2.8-4L9.3,25.5l-2.8,4l5.4,3.8v10.3H0V48h48v-4.4H40.1z"/><path d="M19.2,19.3l-1.5,2.5l5.6,3.3l1.5-2.5l2.4,1.4l2-3.5c-2.1-1.1-3.5-3.2-3.5-5.7c0-3.5,2.9-6.4,6.4-6.4c1.3,0,2.4,0.4,3.4,1   L37,7.1l-2.4-1.4l0,0L36,3.3L30.3,0l-1.4,2.5l0,0l-2.4-1.4l-9.7,16.9L19.2,19.3L19.2,19.3z"/><path d="M32.2,10.4c-2.4,0-4.4,2-4.4,4.4c0,2.4,2,4.4,4.4,4.4s4.4-2,4.4-4.4C36.6,12.4,34.6,10.4,32.2,10.4z M32.2,17.2   c-1.3,0-2.4-1.1-2.4-2.4c0-1.3,1.1-2.4,2.4-2.4c1.3,0,2.4,1.1,2.4,2.4C34.6,16.2,33.5,17.2,32.2,17.2z"/></g></svg>
