<svg xmlns="http://www.w3.org/2000/svg" data-name="Layer 53" viewBox="0 0 100 100" x="0px" y="0px"><path d="M90.05,6H10A6,6,0,0,0,4,11.89V67A6,6,0,0,0,10,73H40.73v8.37H30.55A6.56,6.56,0,0,0,24,87.88v5.17a1,1,0,0,0,1,1H75a1,1,0,0,0,1-1V87.88a6.56,6.56,0,0,0-6.55-6.56H59.27V73H90.05a6,6,0,0,0,6-6V11.89A6,6,0,0,0,90.05,6ZM69.45,83.32A4.56,4.56,0,0,1,74,87.88v4.17H26V87.88a4.56,4.56,0,0,1,4.55-4.56Zm-26.72-2V73H57.27v8.37ZM94,67a4,4,0,0,1-4,4H10A4,4,0,0,1,6,67V25.59H94Zm0-43.41H6V11.89A4,4,0,0,1,10,8h80.1a4,4,0,0,1,4,3.94Z"/><path d="M33.45,57.35l16.07,6.8h0a1.09,1.09,0,0,0,.35.07,1,1,0,0,0,.35-.07h0l16.07-6.8a1,1,0,0,0,.61-.92v-19a.84.84,0,0,0,0-.27l0-.08a.8.8,0,0,0-.08-.16.24.24,0,0,0-.06-.09l-.11-.12a.27.27,0,0,0-.08-.07l0,0-.1-.05-.06,0L50.3,29.74a1.05,1.05,0,0,0-.78,0l-16.07,6.8-.06,0-.1.05,0,0-.08.07-.11.12L33,37a.8.8,0,0,0-.08.16l0,.08a.84.84,0,0,0,0,.27v19A1,1,0,0,0,33.45,57.35ZM65,55.77,50.91,61.72V44.92L65,39Zm-15.07-24,13.51,5.71L49.91,43.17l-13.5-5.71ZM34.84,39l14.07,6v16.8L34.84,55.77Z"/><path d="M15.7,11.21a5,5,0,1,0,5,5A5,5,0,0,0,15.7,11.21Zm0,7.91a3,3,0,1,1,3-2.95A2.95,2.95,0,0,1,15.7,19.12Z"/><path d="M31.18,11.21a5,5,0,1,0,5,5A5,5,0,0,0,31.18,11.21Zm0,7.91a3,3,0,1,1,3-2.95A3,3,0,0,1,31.18,19.12Z"/><path d="M46.66,11.21a5,5,0,1,0,5,5A5,5,0,0,0,46.66,11.21Zm0,7.91a3,3,0,1,1,3-2.95A3,3,0,0,1,46.66,19.12Z"/></svg>
