<svg xmlns="http://www.w3.org/2000/svg" xmlns:xlink="http://www.w3.org/1999/xlink" version="1.1" x="0px" y="0px" viewBox="0 0 100 100" enable-background="new 0 0 100 100" xml:space="preserve"><g display="none"><path display="inline" d="M17.5,54c-3.309,0-6-2.691-6-6s2.691-6,6-6s6,2.691,6,6S20.809,54,17.5,54z M17.5,44   c-2.206,0-4,1.794-4,4s1.794,4,4,4s4-1.794,4-4S19.706,44,17.5,44z"/><path display="inline" d="M21,64h-5c-3.309,0-6-2.691-6-6s2.691-6,6-6h5c3.309,0,6,2.691,6,6S24.309,64,21,64z M16,54   c-2.206,0-4,1.794-4,4s1.794,4,4,4h5c2.206,0,4-1.794,4-4s-1.794-4-4-4H16z"/><path display="inline" d="M20,74h-5c-3.309,0-6-2.691-6-6s2.691-6,6-6h5c3.309,0,6,2.691,6,6S23.309,74,20,74z M15,64   c-2.206,0-4,1.794-4,4s1.794,4,4,4h5c2.206,0,4-1.794,4-4s-1.794-4-4-4H15z"/><path display="inline" d="M20,84h-5c-3.309,0-6-2.691-6-6s2.691-6,6-6h5c3.309,0,6,2.691,6,6S23.309,84,20,84z M15,74   c-2.206,0-4,1.794-4,4s1.794,4,4,4h5c2.206,0,4-1.794,4-4s-1.794-4-4-4H15z"/><path display="inline" d="M20,89c-3.309,0-6-2.691-6-6c0-0.553,0.448-1,1-1s1,0.447,1,1c0,2.206,1.794,4,4,4s4-1.794,4-4V68   c0-0.553,0.448-1,1-1s1,0.447,1,1v15C26,86.309,23.309,89,20,89z"/><path display="inline" d="M30,91.5c-3.309,0-6-2.691-6-6v-10c0-0.553,0.448-1,1-1s1,0.447,1,1v10c0,2.206,1.794,4,4,4s4-1.794,4-4   v-15c0-0.553,0.448-1,1-1s1,0.447,1,1v15C36,88.809,33.309,91.5,30,91.5z"/><path display="inline" d="M40,94c-3.309,0-6-2.691-6-6V73c0-0.553,0.448-1,1-1s1,0.447,1,1v15c0,2.206,1.794,4,4,4s4-1.794,4-4V73   c0-0.553,0.448-1,1-1s1,0.447,1,1v15C46,91.309,43.309,94,40,94z"/><path display="inline" d="M50,89c-3.309,0-6-2.691-6-6V68c0-0.553,0.448-1,1-1s1,0.447,1,1v15c0,2.206,1.794,4,4,4   c2.206,0,4-1.794,4-4V63c0-0.553,0.447-1,1-1s1,0.447,1,1v20C56,86.309,53.309,89,50,89z"/><path display="inline" d="M15,44c-0.552,0-1-0.448-1-1V33c0-0.552,0.448-1,1-1s1,0.448,1,1v10C16,43.552,15.552,44,15,44z"/><path display="inline" d="M60,34c-0.26,0-0.516-0.102-0.707-0.293L55,29.414l-4.293,4.293C50.52,33.895,50.265,34,50,34H10   c-0.552,0-1-0.448-1-1V23c0-0.552,0.448-1,1-1h50c0.553,0,1,0.448,1,1v10c0,0.404-0.243,0.769-0.617,0.924   C60.259,33.975,60.129,34,60,34z M11,32h38.586l4.707-4.707c0.391-0.391,1.023-0.391,1.414,0L59,30.586V24H11V32z"/><rect x="54" y="23" display="inline" width="2" height="5"/><path display="inline" d="M61,24H4V8c0-0.552,0.448-1,1-1s1,0.448,1,1v14h53V8c0-0.552,0.447-1,1-1s1,0.448,1,1V24z"/><path display="inline" d="M50,48"/><path display="inline" d="M60,38"/><path display="inline" d="M60,64c-6.065,0-11-4.935-11-11c0-0.553,0.448-1,1-1s1,0.447,1,1c0,4.963,4.037,9,9,9   c0.553,0,1,0.447,1,1S60.553,64,60,64z"/><path display="inline" d="M60,39c-0.256,0-0.512-0.098-0.707-0.293L54,33.414V28c0-0.552,0.447-1,1-1s1,0.448,1,1v4.586   l4.707,4.707c0.391,0.391,0.391,1.023,0,1.414C60.512,38.902,60.256,39,60,39z"/><path display="inline" d="M75,54c-0.553,0-1-0.447-1-1c0-7.72-6.28-14-14-14c-0.553,0-1-0.448-1-1s0.447-1,1-1   c8.822,0,16,7.178,16,16C76,53.553,75.553,54,75,54z"/><path display="inline" d="M65.414,84H55c-0.553,0-1-0.447-1-1s0.447-1,1-1h9.586l4.707-4.707c0.391-0.391,1.023-0.391,1.414,0   s0.391,1.023,0,1.414L65.414,84z"/><path display="inline" d="M81,84h-7V47h7V84z M76,82h3V49h-3V82z"/><path display="inline" d="M39.395,58.999c-2.908,0-5.816-0.981-7.779-2.944l-0.714-0.714L49.3,37.286   c0.394-0.387,1.027-0.381,1.414,0.014c0.387,0.394,0.381,1.027-0.014,1.414L33.797,55.301c3.335,2.476,9.045,2.255,11.96-0.659   l3.535-3.536c0.391-0.391,1.023-0.391,1.414,0s0.391,1.023,0,1.414l-3.535,3.536C45.209,58.019,42.302,58.999,39.395,58.999z"/><path display="inline" d="M60,39H50c-0.552,0-1-0.448-1-1s0.448-1,1-1h10c0.553,0,1,0.448,1,1S60.553,39,60,39z"/><path display="inline" d="M95,89H79V47h16c0.553,0,1,0.448,1,1s-0.447,1-1,1H81v38h14c0.553,0,1,0.447,1,1S95.553,89,95,89z"/><path display="inline" d="M75,84H65c-0.553,0-1-0.447-1-1s0.447-1,1-1h10c0.553,0,1,0.447,1,1S75.553,84,75,84z"/><path display="inline" d="M95,84H80c-0.553,0-1-0.447-1-1s0.447-1,1-1h15c0.553,0,1,0.447,1,1S95.553,84,95,84z"/></g><g display="none"><path display="inline" d="M57.856,58.857c-1.844,0-3.575-0.769-4.877-2.163c-0.826-0.883-1.911-1.417-3.055-1.504   c-0.551-0.042-0.963-0.521-0.921-1.072c0.042-0.552,0.521-0.968,1.073-0.922c1.644,0.124,3.195,0.882,4.366,2.132   c0.92,0.986,2.133,1.529,3.415,1.529c0.002,0,0.004,0,0.005,0c1.28-0.002,2.487-0.544,3.4-1.526c1.94-2.074,1.94-5.445,0.002-7.517   c-0.915-0.985-2.122-1.527-3.402-1.528c-0.001,0-0.003,0-0.005,0c-1.282,0-2.495,0.542-3.414,1.527   c-1.172,1.251-2.723,2.009-4.367,2.134c-0.541,0.037-1.031-0.371-1.073-0.921c-0.042-0.55,0.371-1.031,0.921-1.073   c1.143-0.087,2.229-0.622,3.057-1.506c1.3-1.394,3.032-2.162,4.875-2.162c0.003,0,0.005,0,0.008,0   c1.841,0.002,3.568,0.771,4.862,2.165c2.642,2.823,2.642,7.419-0.002,10.245c-1.292,1.391-3.02,2.16-4.86,2.162   C57.861,58.857,57.858,58.857,57.856,58.857z"/><path display="inline" d="M17.856,58.857c-1.843,0-3.575-0.769-4.877-2.163c-0.826-0.883-1.912-1.417-3.055-1.504   c-0.551-0.042-0.963-0.521-0.921-1.072c0.042-0.552,0.514-0.968,1.073-0.922c1.645,0.124,3.195,0.882,4.365,2.132   c0.92,0.986,2.133,1.529,3.416,1.529c0.002,0,0.003,0,0.005,0c1.28-0.002,2.487-0.544,3.399-1.526   c1.941-2.074,1.941-5.445,0.003-7.517c-0.915-0.985-2.123-1.527-3.402-1.528c-0.002,0-0.003,0-0.005,0   c-1.283,0-2.495,0.542-3.415,1.527c-1.172,1.251-2.722,2.009-4.366,2.134c-0.547,0.037-1.031-0.371-1.073-0.921   c-0.042-0.55,0.371-1.031,0.921-1.073c1.144-0.087,2.229-0.622,3.057-1.506c1.301-1.394,3.032-2.162,4.875-2.162   c0.002,0,0.005,0,0.008,0c1.841,0.002,3.568,0.771,4.863,2.165c2.641,2.823,2.641,7.419-0.003,10.245   c-1.292,1.391-3.019,2.16-4.86,2.162C17.862,58.857,17.859,58.857,17.856,58.857z"/><path display="inline" d="M32.621,29.715c-0.026,0-0.052-0.001-0.078-0.003c-0.55-0.042-0.962-0.523-0.92-1.074   c0.127-1.644,0.884-3.194,2.133-4.363c0.988-0.922,1.531-2.137,1.529-3.421c-0.001-1.28-0.543-2.487-1.526-3.4   c-2.073-1.94-5.444-1.94-7.515-0.003c-0.986,0.916-1.528,2.123-1.529,3.403c-0.001,1.285,0.541,2.499,1.528,3.42   c1.25,1.172,2.008,2.722,2.133,4.366c0.042,0.551-0.37,1.031-0.921,1.073c-0.555,0.039-1.031-0.37-1.073-0.921   c-0.087-1.144-0.622-2.23-1.505-3.058c-1.396-1.302-2.164-3.036-2.162-4.882c0.002-1.841,0.771-3.569,2.165-4.864   c2.822-2.64,7.418-2.641,10.243,0.003c1.392,1.292,2.161,3.02,2.163,4.861c0.002,1.846-0.766,3.581-2.164,4.884   c-0.881,0.826-1.416,1.912-1.504,3.057C33.577,29.316,33.139,29.715,32.621,29.715z"/><path display="inline" d="M32.621,75.429c-0.026,0-0.052-0.001-0.078-0.003c-0.55-0.043-0.962-0.523-0.92-1.074   c0.127-1.643,0.884-3.192,2.132-4.363c0.989-0.922,1.531-2.137,1.53-3.421c-0.001-1.279-0.543-2.487-1.526-3.4   c-2.073-1.94-5.443-1.941-7.515-0.002c-0.986,0.915-1.528,2.123-1.529,3.402c-0.001,1.284,0.541,2.499,1.528,3.419   c1.251,1.174,2.008,2.724,2.133,4.366c0.042,0.551-0.37,1.031-0.921,1.073c-0.555,0.038-1.031-0.371-1.073-0.921   c-0.087-1.144-0.622-2.229-1.505-3.058c-1.395-1.302-2.164-3.036-2.162-4.882c0.002-1.841,0.771-3.568,2.165-4.863   c2.821-2.642,7.418-2.642,10.243,0.002c1.392,1.293,2.161,3.021,2.163,4.861c0.002,1.846-0.767,3.58-2.164,4.884   c-0.881,0.826-1.416,1.912-1.504,3.057C33.577,75.03,33.139,75.429,32.621,75.429z"/><path display="inline" d="M82.144,58.857c-0.003,0-0.005,0-0.008,0c-1.841-0.002-3.568-0.771-4.862-2.165   c-2.642-2.822-2.642-7.419,0.002-10.244c1.292-1.391,3.02-2.16,4.86-2.162c0.003,0,0.006,0,0.008,0   c1.844,0,3.575,0.768,4.877,2.163c0.826,0.882,1.912,1.417,3.056,1.504c0.551,0.042,0.963,0.522,0.921,1.073   c-0.042,0.551-0.509,0.959-1.073,0.921c-1.644-0.125-3.194-0.883-4.365-2.133c-0.92-0.986-2.133-1.529-3.415-1.529   c-0.002,0-0.004,0-0.005,0c-1.28,0.001-2.487,0.543-3.4,1.526c-1.94,2.074-1.94,5.445-0.002,7.516   c0.915,0.985,2.122,1.527,3.402,1.529c0.001,0,0.003,0,0.005,0c1.282,0,2.495-0.542,3.414-1.528   c1.172-1.251,2.723-2.009,4.367-2.133c0.547-0.037,1.03,0.371,1.072,0.922s-0.371,1.03-0.922,1.072   c-1.144,0.087-2.229,0.621-3.057,1.505C85.719,58.089,83.987,58.857,82.144,58.857z"/><path display="inline" d="M70.001,43.422c-1.855,0-3.711-0.661-5.124-1.983c-1.392-1.292-2.16-3.02-2.162-4.861   c-0.002-1.846,0.767-3.581,2.164-4.884c0.881-0.826,1.415-1.912,1.503-3.056c0.042-0.551,0.509-0.967,1.073-0.921   c0.551,0.042,0.963,0.522,0.921,1.073c-0.126,1.644-0.883,3.193-2.132,4.364c-0.988,0.922-1.53,2.136-1.529,3.42   c0.001,1.28,0.543,2.488,1.526,3.4c2.074,1.941,5.444,1.941,7.515,0.003c0.986-0.916,1.528-2.123,1.529-3.403   c0.001-1.284-0.541-2.499-1.527-3.418c-1.251-1.172-2.008-2.722-2.135-4.365c-0.042-0.551,0.369-1.032,0.92-1.074   c0.562-0.045,1.032,0.37,1.074,0.92c0.088,1.145,0.623,2.231,1.506,3.059c1.396,1.301,2.164,3.036,2.162,4.882   c-0.002,1.841-0.771,3.569-2.165,4.864C73.709,42.762,71.854,43.422,70.001,43.422z"/><path display="inline" d="M70.001,89.137c-1.855,0-3.711-0.661-5.124-1.982c-1.392-1.293-2.16-3.021-2.162-4.862   c-0.002-1.846,0.767-3.58,2.163-4.884c0.882-0.826,1.416-1.912,1.504-3.056c0.042-0.551,0.509-0.968,1.073-0.921   c0.551,0.042,0.963,0.522,0.921,1.073c-0.126,1.644-0.883,3.194-2.132,4.364c-0.988,0.922-1.53,2.137-1.529,3.421   c0.001,1.28,0.543,2.488,1.526,3.401c2.074,1.939,5.444,1.939,7.515,0.002c0.986-0.915,1.528-2.123,1.529-3.403   c0.001-1.284-0.541-2.499-1.528-3.419c-1.25-1.172-2.007-2.722-2.134-4.365c-0.042-0.551,0.369-1.031,0.92-1.074   c0.562-0.045,1.032,0.37,1.074,0.92c0.088,1.145,0.623,2.231,1.506,3.059c1.396,1.302,2.164,3.036,2.162,4.882   c-0.002,1.842-0.771,3.569-2.165,4.864C73.709,88.477,71.854,89.137,70.001,89.137z"/><path display="inline" d="M27.383,75.429H10c-0.552,0-1-0.447-1-1V54.189c0-0.553,0.448-1,1-1s1,0.447,1,1v19.239h16.383   c0.552,0,1,0.447,1,1S27.935,75.429,27.383,75.429z"/><path display="inline" d="M50,49.395c-0.552,0-1-0.448-1-1v-18.68H32.617c-0.552,0-1-0.448-1-1s0.448-1,1-1H50c0.552,0,1,0.448,1,1   v19.68C51,48.947,50.552,49.395,50,49.395z"/><path display="inline" d="M10,49.955c-0.552,0-1-0.448-1-1v-20.24c0-0.552,0.448-1,1-1h17.383c0.552,0,1,0.448,1,1s-0.448,1-1,1H11   v19.24C11,49.507,10.552,49.955,10,49.955z"/><path display="inline" d="M50,75.429H32.617c-0.552,0-1-0.447-1-1s0.448-1,1-1H49V54.748c0-0.553,0.448-1,1-1s1,0.447,1,1v19.681   C51,74.981,50.552,75.429,50,75.429z"/><path display="inline" d="M90,49.955c-0.553,0-1-0.448-1-1v-19.24H72.617c-0.553,0-1-0.448-1-1s0.447-1,1-1H90c0.553,0,1,0.448,1,1   v20.24C91,49.507,90.553,49.955,90,49.955z"/><path display="inline" d="M67.383,75.429H50c-0.552,0-1-0.447-1-1s0.448-1,1-1h17.383c0.553,0,1,0.447,1,1   S67.936,75.429,67.383,75.429z"/><path display="inline" d="M90,75.429H72.617c-0.553,0-1-0.447-1-1s0.447-1,1-1H89V54.189c0-0.553,0.447-1,1-1s1,0.447,1,1v20.239   C91,74.981,90.553,75.429,90,75.429z"/><path display="inline" d="M67.383,29.715H50c-0.552,0-1-0.448-1-1s0.448-1,1-1h17.383c0.553,0,1,0.448,1,1   S67.936,29.715,67.383,29.715z"/></g><g><path d="M66,83H34V66h32V83z M36,81h28V68H36V81z"/><path d="M66,68H34V51h32V68z M36,66h28V53H36V66z"/><path d="M45,53h-5c-0.552,0-1-0.447-1-1v-2.5c0-0.552,0.448-1,1-1h5c0.552,0,1,0.448,1,1V52C46,52.553,45.552,53,45,53z M41,51h3   v-0.5h-3V51z"/><path d="M60,53h-5c-0.553,0-1-0.447-1-1v-2.5c0-0.552,0.447-1,1-1h5c0.553,0,1,0.448,1,1V52C61,52.553,60.553,53,60,53z M56,51h3   v-0.5h-3V51z"/><path d="M65.341,48.16L33.84,42.535L36.828,25.8l31.501,5.625L65.341,48.16z M36.16,40.918l27.563,4.922l2.285-12.798L38.445,28.12   L36.16,40.918z"/><path d="M47.48,29.718c-0.059,0-0.117-0.005-0.176-0.016l-4.922-0.879c-0.543-0.097-0.906-0.617-0.809-1.16l0.439-2.461   c0.046-0.261,0.195-0.493,0.413-0.645c0.218-0.152,0.486-0.21,0.748-0.164l4.922,0.879c0.543,0.097,0.906,0.617,0.809,1.16   l-0.439,2.461c-0.046,0.261-0.195,0.493-0.413,0.645C47.883,29.656,47.684,29.718,47.48,29.718z M43.719,27.03l2.953,0.527   l0.088-0.492l-2.953-0.527L43.719,27.03z"/><path d="M62.247,32.354c-0.059,0-0.117-0.005-0.176-0.016l-4.922-0.879c-0.544-0.097-0.905-0.616-0.809-1.16l0.438-2.461   c0.047-0.261,0.194-0.493,0.412-0.645s0.486-0.21,0.748-0.164l4.922,0.879c0.544,0.097,0.905,0.616,0.809,1.16l-0.438,2.461   c-0.047,0.261-0.194,0.493-0.412,0.645C62.65,32.292,62.45,32.354,62.247,32.354z M58.485,29.667l2.953,0.527l0.087-0.492   l-2.953-0.527L58.485,29.667z"/></g></svg>
