<svg xmlns="http://www.w3.org/2000/svg" xmlns:xlink="http://www.w3.org/1999/xlink" version="1.1" x="0px" y="0px" viewBox="0 0 100 100" style="enable-background:new 0 0 100 100;" xml:space="preserve"><g><path d="M58.7,79H21c-0.8,0-1.5,0.7-1.5,1.5S20.2,82,21,82h37.7c0.8,0,1.5-0.7,1.5-1.5S59.6,79,58.7,79z"/><path d="M58.7,69H21c-0.8,0-1.5,0.7-1.5,1.5S20.2,72,21,72h37.7c0.8,0,1.5-0.7,1.5-1.5S59.6,69,58.7,69z"/><path d="M71,14.8H54.6c-1.9-2.7-4.7-4.6-7.9-5.4c-0.5-3.3-3.4-5.9-6.9-5.9c-3.5,0-6.4,2.6-6.9,5.9c-3.2,0.8-5.9,2.7-7.9,5.4H8.7   c-0.8,0-1.5,0.7-1.5,1.5V95c0,0.8,0.7,1.5,1.5,1.5H71c0.8,0,1.5-0.7,1.5-1.5V16.3C72.5,15.4,71.8,14.8,71,14.8z M34.7,12.1   c0.7-0.1,1.3-0.8,1.3-1.5l0-0.1c0-2.2,1.8-4,4-4s4,1.8,4,4c0,0,0,0.1,0,0.2c0,0.7,0.5,1.4,1.3,1.5c3.1,0.5,5.8,2.3,7.5,5   c0.8,1.3,1.3,2.7,1.6,4.2H25.6c0.2-1.5,0.7-2.9,1.6-4.2C28.8,14.4,31.6,12.6,34.7,12.1z M69.5,93.5H10.2V17.8h13.2c0,0,0,0.1,0,0.1   c-0.3,0.7-0.5,1.5-0.6,2.2c0,0.1,0,0.2-0.1,0.3c0,0.3-0.1,0.6-0.1,0.9c0,0.1,0,0.2,0,0.3c0,0.4-0.1,0.8-0.1,1.2   c0,0.8,0.7,1.5,1.5,1.5h31.7c0.8,0,1.5-0.7,1.5-1.5c0-0.4,0-0.8-0.1-1.2c0-0.1,0-0.2,0-0.3c0-0.3-0.1-0.6-0.1-0.9   c0-0.1,0-0.2-0.1-0.3c-0.1-0.4-0.2-0.8-0.3-1.1c0,0,0,0,0,0c-0.1-0.4-0.2-0.7-0.4-1.1c0,0,0-0.1,0-0.1h13.2V93.5z"/><path d="M84.9,19.7c-4.3,0-7.9,3.5-7.9,7.9v48.8c0,0.1,0,0.2,0,0.4c0,0,0,0.1,0,0.1c0,0.1,0.1,0.2,0.1,0.2c0,0,0,0,0,0.1l6.4,11   c0.3,0.5,0.8,0.7,1.3,0.7s1-0.3,1.3-0.7l6.4-11c0,0,0,0,0-0.1c0-0.1,0.1-0.2,0.1-0.2c0,0,0-0.1,0-0.1c0-0.1,0-0.2,0-0.4V27.6   C92.8,23.3,89.2,19.7,84.9,19.7z M80,74.9V32h9.8v42.8H80z M84.9,22.7c2.7,0,4.9,2.2,4.9,4.9V29H80v-1.4   C80,24.9,82.2,22.7,84.9,22.7z M84.9,84.4l-3.8-6.5h7.5L84.9,84.4z"/><path d="M55.7,33.1c0-0.8-0.7-1.5-1.5-1.5h-6.5c-0.8,0-1.5,0.7-1.5,1.5v26.3h-1.6V44c0-0.8-0.7-1.5-1.5-1.5h-6.5   c-0.8,0-1.5,0.7-1.5,1.5v15.4h-1.6V39.4c0-0.8-0.7-1.5-1.5-1.5h-6.5c-0.8,0-1.5,0.7-1.5,1.5v20.1h-3c-0.8,0-1.5,0.7-1.5,1.5   s0.7,1.5,1.5,1.5h4.5H32h4.6h6.5h4.6h6.5h4.5c0.8,0,1.5-0.7,1.5-1.5s-0.7-1.5-1.5-1.5h-3V33.1z M27.1,59.4V40.9h3.5v18.6H27.1z    M38.1,59.4V45.5h3.5v13.9H38.1z M49.2,59.4V34.6h3.5v24.8H49.2z"/></g></svg>
