<svg xmlns="http://www.w3.org/2000/svg" xmlns:xlink="http://www.w3.org/1999/xlink" version="1.1" x="0px" y="0px" viewBox="-346 256 100 100" enable-background="new -346 256 100 100" xml:space="preserve"><g><path d="M-275.523,271.454c-10.806,0-20.926,6.548-25.785,14.897h4.518c8.182,0,15.035,4.732,16.771,11.047h10.256   c3.906,0.233,11.032,2.89,11.032,11.312c0,5.621-2.754,8.438-5.065,9.812c-0.364,0.218-0.767,0.321-1.162,0.321   c-0.775,0-1.531-0.398-1.956-1.113c-0.643-1.079-0.288-2.474,0.789-3.117c1.915-1.137,2.846-3.067,2.846-5.903   c0-6.293-6.353-6.751-6.622-6.769l-9.738,0.003c-0.445,6.119-3.963,12.743-17.15,12.743h-14.537l-1.734,3.649   c-0.123,0.276-0.184,0.596-0.184,0.924c0,1.312,1.059,2.377,2.377,2.377h5.814v6.936c0,8.887,5.206,11.649,11.638,11.649h3.948   v9.039h32.179v-22.82c6.869-5.401,11.29-16.041,11.29-25.457C-246,284.672-259.211,271.454-275.523,271.454z"/><path d="M-316.677,314.671v-28.364h15.395c0,0-0.686,1.035-1.191,2.25c-0.507,1.214-0.874,2.302-0.874,2.302h-8.777v19.363h2.896   l-2.092,4.449H-316.677z"/><path d="M-297,290.816h-6.328c-0.193,0.589-0.374,1.18-0.512,1.776c-0.569,2.463-1.215,8.9-1.215,8.9l-4.15,8.729H-297   c11.291,0,12.741-5.184,12.741-9.702C-284.259,295.17-289.975,290.816-297,290.816z M-295.756,304.829   c-1.639,0-2.967-1.329-2.967-2.967s1.328-2.966,2.967-2.966c1.64,0,2.967,1.328,2.967,2.966S-294.116,304.829-295.756,304.829z"/></g><g><polygon points="-345.901,322.309 -345.901,325.722 -324.995,312.457 -324.949,319.959 -318.228,304.739  "/><polygon points="-345.901,335.87 -345.901,339.283 -324.995,326.017 -324.949,333.521 -318.228,318.299  "/><polygon points="-329.233,289.43 -324.007,286.86 -337.185,286.86 -331.493,296.918 -331.353,291.483 -323.947,297.354    -345.901,311.291 -345.901,314.705 -318.981,297.611  "/></g></svg>
