<svg xmlns="http://www.w3.org/2000/svg" data-name="Слой 1" viewBox="0 0 128 128" x="0px" y="0px"><title>ic_teamwork</title><path d="M64,54.62a24.61,24.61,0,0,0,10.87-2.53l8.76,15-9-2.21a2,2,0,0,0-1,3.89l13.6,3.33a2,2,0,0,0,.48.06,2.22,2.22,0,0,0,.45-.06l.11,0a1.57,1.57,0,0,0,.42-.18h0l.07,0,.2-.15.11-.09.15-.17.09-.11.12-.21.06-.11a1.34,1.34,0,0,0,.09-.24.38.38,0,0,0,0-.1v0L93,57a2,2,0,0,0-3.88-1L87,64.84,78.3,50A24.65,24.65,0,1,0,64,54.62ZM51.73,46.55a12.31,12.31,0,0,1,24.54,0,20.53,20.53,0,0,1-24.54,0Zm6.35-21.29A5.92,5.92,0,1,1,64,31.19,5.93,5.93,0,0,1,58.08,25.26ZM64,9.27a20.66,20.66,0,0,1,15.75,34,16.36,16.36,0,0,0-9.11-10.7,9.92,9.92,0,1,0-13.28,0,16.36,16.36,0,0,0-9.11,10.7A20.66,20.66,0,0,1,64,9.27Z"/><path d="M103.33,73.38A24.7,24.7,0,0,0,78.74,96H61.83l6.58-6.59a2,2,0,0,0-2.82-2.82l-10,10a1.79,1.79,0,0,0-.25.31.55.55,0,0,0-.08.15,1.28,1.28,0,0,0-.11.2l-.06.2a.84.84,0,0,0-.05.17,2,2,0,0,0,0,.78.84.84,0,0,0,.05.17l.06.2a1.28,1.28,0,0,0,.11.2.55.55,0,0,0,.08.15,1.79,1.79,0,0,0,.25.31l10,10a2,2,0,0,0,2.82-2.82L61.83,100h16.9a24.67,24.67,0,1,0,24.6-26.62ZM91.06,114.66a12.3,12.3,0,0,1,24.53,0,20.52,20.52,0,0,1-24.53,0ZM97.4,93.38a5.93,5.93,0,1,1,5.93,5.92A5.94,5.94,0,0,1,97.4,93.38Zm21.67,18a16.35,16.35,0,0,0-9.1-10.69,9.93,9.93,0,1,0-13.29,0,16.35,16.35,0,0,0-9.1,10.69,20.68,20.68,0,1,1,31.49,0Z"/><path d="M49.72,57.17a.54.54,0,0,0,0-.11l-.09-.24-.1-.15-.11-.18-.14-.14-.13-.14-.21-.14-.1-.07h0l-.23-.11-.13-.05h0a2,2,0,0,0-1.11,0h0L33.8,59.73a2,2,0,1,0,1.12,3.84L43.62,61,35.23,75.76a24.72,24.72,0,1,0,3.46,2L47.2,62.83l2.59,8.9a2,2,0,0,0,1.92,1.44,1.81,1.81,0,0,0,.56-.08,2,2,0,0,0,1.36-2.48ZM12.41,114.66a12.3,12.3,0,0,1,24.53,0,20.52,20.52,0,0,1-24.53,0Zm6.34-21.28a5.93,5.93,0,1,1,5.92,5.92A5.93,5.93,0,0,1,18.75,93.38Zm26.6,4.68a20.56,20.56,0,0,1-4.93,13.36,16.35,16.35,0,0,0-9.1-10.69,9.93,9.93,0,1,0-13.29,0,16.35,16.35,0,0,0-9.1,10.69A20.67,20.67,0,1,1,45.35,98.06Z"/></svg>
