<svg xmlns="http://www.w3.org/2000/svg" viewBox="259 59 457 382">
  <text data-name="feedback" font-family="Helvetica" font-size="24" font-weight="600" x="42.9" y="86.48" transform="translate(494.12 121.88)"><tspan x="19.1" y="43.28">STAKEHOLDER</tspan><tspan x="42.9" y="86.48">FEEDBACK</tspan></text>
  <path fill="#D7712B" d="M633.64 224.92a169.21 169.21 0 0 1-77.12 169.66l8.24 19.01-37.21-21.42 8.09-45.76 8.22 18.96a137.81 137.81 0 0 0 58.78-135.56z"/>
  <text data-name="learn" font-family="Helvetica" font-size="24" font-weight="600" x="13.71" y="76.58" transform="translate(406.77 338.64)"><tspan x="13.71" y="76.58">LEARN</tspan></text>
  <path fill="#E68E61" d="M399.17 406.56a169.23 169.23 0 0 1-100.05-180.34l-19.79-6.13 40.5-14.27 29.44 35.95-19.75-6.12a137.85 137.85 0 0 0 82.13 142.12z"/>
  <text data-name="design" font-family="Helvetica" font-size="24" font-weight="600" x="40.49" y="37.2" transform="translate(250.7 143.8)"><tspan x="40.49" y="37.2">DESIGN</tspan></text>
  <path fill="#F3B29A" d="M346.26 132.19a169.21 169.21 0 0 1 188.27-35.84l11.11-17.49 3.16 42.83-42.42 18.98 11.09-17.45h-.01a137.85 137.85 0 0 0-148.9 31.05z"/>
</svg>
